<svg width="224" height="55" viewBox="0 0 224 55" fill="none" xmlns="http://www.w3.org/2000/svg">
<path d="M46.4527 7.35483L49.9926 7.34486L49.9954 8.92886L44.7995 8.94349L44.7846 0.543504L49.9206 0.529042L49.9234 2.11304L46.4434 2.12284L46.4466 3.91084L49.6265 3.90188L49.6293 5.46188L46.4493 5.47083L46.4527 7.35483ZM57.6916 8.90719L57.1849 7.39661L53.8369 7.40604L53.3356 8.91945L51.5476 8.92449L54.4727 0.516223L56.5247 0.510445L59.4916 8.90212L57.6916 8.90719ZM54.3622 5.85655L56.6662 5.85007L55.5081 2.42131L54.3622 5.85655ZM65.9152 8.88403L64.218 5.9728L62.958 5.97635L62.9632 8.89234L61.3072 8.89701L61.2923 0.49702L64.6523 0.487559C65.4283 0.485373 66.0888 0.755515 66.6338 1.29798C67.1787 1.84045 67.4519 2.49568 67.4532 3.26368C67.4542 3.78368 67.307 4.2681 67.0118 4.71693C66.7166 5.15776 66.3252 5.49087 65.8376 5.71624L67.7032 8.879L65.9152 8.88403ZM62.9511 2.04035L62.9555 4.52435L64.6595 4.51955C64.9715 4.51867 65.2393 4.39792 65.4628 4.15729C65.6864 3.90866 65.7979 3.61234 65.7973 3.26834C65.7966 2.92434 65.6841 2.63266 65.4597 2.39329C65.2353 2.15392 64.9671 2.03468 64.6551 2.03556L62.9511 2.04035ZM71.3315 7.28477L74.5354 7.27575L74.5383 8.85975L69.6783 8.87343L69.6634 0.473448L71.3194 0.468785L71.3315 7.28477ZM76.4642 0.454297L78.1202 0.449634L78.135 8.84962L76.479 8.85428L76.4642 0.454297ZM82.3431 7.25377L85.8831 7.2438L85.8859 8.8278L80.6899 8.84243L80.6751 0.44244L85.8111 0.427977L85.8139 2.01198L82.3339 2.02177L82.337 3.80977L85.517 3.80082L85.5198 5.36081L82.3398 5.36977L82.3431 7.25377ZM90.9215 8.98162C90.0895 8.98396 89.3892 8.80193 88.8205 8.43553C88.2519 8.06113 87.851 7.55426 87.6178 6.91491L89.0324 6.08293C89.3619 6.938 90.0066 7.36419 90.9666 7.36148C91.4306 7.36018 91.7705 7.27522 91.9862 7.10661C92.2019 6.938 92.3095 6.7257 92.309 6.4697C92.3085 6.1737 92.1761 5.94607 91.9118 5.78682C91.6475 5.61956 91.1752 5.44089 90.4949 5.2508C90.1187 5.13986 89.7985 5.02877 89.5343 4.91751C89.2781 4.80623 89.0178 4.65896 88.7535 4.47571C88.4972 4.28443 88.3007 4.04498 88.1642 3.75736C88.0277 3.46975 87.9591 3.13394 87.9585 2.74994C87.9571 1.98994 88.224 1.38519 88.7592 0.935678C89.3024 0.478146 89.954 0.248311 90.714 0.246171C91.394 0.244256 91.9903 0.410577 92.5029 0.745135C93.0235 1.07167 93.4283 1.53053 93.7173 2.12172L92.3268 2.92964C91.9895 2.21059 91.4529 1.8521 90.7169 1.85417C90.3729 1.85514 90.101 1.9359 89.9013 2.09647C89.7096 2.24901 89.6139 2.44928 89.6144 2.69728C89.6148 2.96128 89.7232 3.17697 89.9395 3.34436C90.1638 3.50373 90.5881 3.67854 91.2124 3.86878C91.4686 3.94806 91.6607 4.01152 91.7888 4.05916C91.9248 4.09877 92.105 4.16627 92.3291 4.26164C92.5613 4.34898 92.7374 4.43249 92.8576 4.51215C92.9857 4.59179 93.1299 4.69938 93.2901 4.83493C93.4504 4.97048 93.5706 5.11014 93.6509 5.25392C93.7391 5.39767 93.8115 5.57347 93.8678 5.78131C93.9322 5.98113 93.9646 6.20104 93.965 6.44104C93.9664 7.21704 93.6835 7.83384 93.1163 8.29143C92.5571 8.74901 91.8255 8.97907 90.9215 8.98162ZM101.286 0.384402L101.288 1.9684L99.0205 1.97479L99.0326 8.79078L97.3766 8.79544L97.3645 1.97945L95.1085 1.9858L95.1057 0.401805L101.286 0.384402ZM110.093 8.92763C109.261 8.92997 108.561 8.74794 107.992 8.38154C107.424 8.00714 107.023 7.50027 106.79 6.86093L108.204 6.02894C108.534 6.88402 109.178 7.3102 110.138 7.3075C110.602 7.30619 110.942 7.22123 111.158 7.05263C111.374 6.88402 111.481 6.67171 111.481 6.41571C111.48 6.11972 111.348 5.89209 111.084 5.73283C110.819 5.56557 110.347 5.3869 109.667 5.19682C109.29 5.08588 108.97 4.97478 108.706 4.86352C108.45 4.75224 108.19 4.60498 107.925 4.42172C107.669 4.23044 107.473 3.99099 107.336 3.70338C107.2 3.41576 107.131 3.07995 107.13 2.69595C107.129 1.93595 107.396 1.3312 107.931 0.881692C108.474 0.42416 109.126 0.194325 109.886 0.192185C110.566 0.19027 111.162 0.356591 111.675 0.691149C112.195 1.01768 112.6 1.47655 112.889 2.06773L111.499 2.87565C111.161 2.1566 110.625 1.79811 109.889 1.80018C109.545 1.80115 109.273 1.88192 109.073 2.04248C108.881 2.19502 108.786 2.39529 108.786 2.64329C108.787 2.90729 108.895 3.12298 109.111 3.29038C109.336 3.44975 109.76 3.62455 110.384 3.81479C110.64 3.89407 110.832 3.95753 110.961 4.00517C111.097 4.04479 111.277 4.11228 111.501 4.20765C111.733 4.295 111.909 4.3785 112.029 4.45816C112.158 4.5378 112.302 4.6454 112.462 4.78095C112.622 4.9165 112.742 5.05616 112.823 5.19993C112.911 5.34368 112.983 5.51948 113.04 5.72732C113.104 5.92714 113.136 6.14705 113.137 6.38705C113.138 7.16305 112.855 7.77985 112.288 8.23745C111.729 8.69502 110.997 8.92508 110.093 8.92763ZM120.457 0.330416L120.46 1.91441L118.192 1.9208L118.204 8.73679L116.548 8.74145L116.536 1.92546L114.28 1.93182L114.278 0.347819L120.457 0.330416ZM127.187 8.71149L126.681 7.20092L123.333 7.21034L122.831 8.72376L121.043 8.7288L123.969 0.320529L126.021 0.314751L128.987 8.70643L127.187 8.71149ZM123.858 5.66086L126.162 5.65437L125.004 2.22562L123.858 5.66086ZM135.411 8.68834L133.714 5.77711L132.454 5.78065L132.459 8.69665L130.803 8.70131L130.788 0.301326L134.148 0.291865C134.924 0.289679 135.585 0.559821 136.13 1.10229C136.675 1.64476 136.948 2.29999 136.949 3.06799C136.95 3.58799 136.803 4.0724 136.508 4.52124C136.212 4.96207 135.821 5.29517 135.333 5.52055L137.199 8.6833L135.411 8.68834ZM132.447 1.84466L132.451 4.32866L134.155 4.32386C134.467 4.32298 134.735 4.20223 134.959 3.96159C135.182 3.71296 135.294 3.41665 135.293 3.07265C135.292 2.72865 135.18 2.43697 134.956 2.1976C134.731 1.95823 134.463 1.83898 134.151 1.83986L132.447 1.84466ZM144.539 0.262604L144.542 1.8466L142.274 1.85299L142.286 8.66898L140.63 8.67364L140.618 1.85765L138.362 1.864L138.359 0.280006L144.539 0.262604ZM156.02 0.230276L156.023 1.81427L153.755 1.82066L153.767 8.63665L152.111 8.64131L152.099 1.82532L149.843 1.83168L149.84 0.247678L156.02 0.230276ZM157.944 0.224857L159.6 0.220194L159.615 8.62018L157.959 8.62484L157.944 0.224857ZM170.375 0.189853L170.39 8.58984L168.746 8.59447L168.736 3.14648L166.379 7.05313L166.187 7.05367L163.816 3.17233L163.826 8.60832L162.17 8.61299L162.155 0.212999L163.859 0.208201L166.278 4.1734L168.671 0.194651L170.375 0.189853ZM174.608 6.99396L178.148 6.98399L178.151 8.56798L172.955 8.58262L172.94 0.182629L178.076 0.168167L178.079 1.75216L174.599 1.76196L174.602 3.54996L177.782 3.54101L177.785 5.101L174.605 5.10996L174.608 6.99396Z" fill="#272727"/>
<rect y="35.594" width="150" height="4" rx="2" fill="#E7E7E8"/>
<path d="M1.7973 47.994H2.7573V53.594H1.6533V49.162L0.597305 49.458L0.325305 48.514L1.7973 47.994ZM7.28705 49.394C7.69105 49.394 8.03105 49.53 8.30705 49.802C8.58305 50.074 8.72105 50.408 8.72105 50.804C8.72105 51.2 8.58305 51.534 8.30705 51.806C8.03105 52.078 7.69105 52.214 7.28705 52.214H6.54905V53.594H5.72105V49.394H7.28705ZM7.28705 51.44C7.46305 51.44 7.60905 51.38 7.72505 51.26C7.84105 51.136 7.89905 50.984 7.89905 50.804C7.89905 50.62 7.84105 50.468 7.72505 50.348C7.60905 50.228 7.46305 50.168 7.28705 50.168H6.54905V51.44H7.28705ZM13.3701 49.394V53.594H12.5481V50.87L11.3661 52.82H11.2701L10.0881 50.876V53.594H9.26012V49.394H10.1121L11.3181 51.38L12.5181 49.394H13.3701Z" fill="#A6D0F4"/>
<path d="M26.3752 53.5959V52.7719L28.2872 50.8039C28.7138 50.3559 28.9272 49.9826 28.9272 49.6839C28.9272 49.4652 28.8578 49.2892 28.7192 49.1559C28.5858 49.0226 28.4125 48.9559 28.1992 48.9559C27.7778 48.9559 27.4658 49.1746 27.2632 49.6119L26.3352 49.0679C26.5112 48.6839 26.7645 48.3906 27.0952 48.1879C27.4258 47.9852 27.7885 47.8839 28.1832 47.8839C28.6898 47.8839 29.1245 48.0439 29.4872 48.3639C29.8498 48.6786 30.0312 49.1052 30.0312 49.6439C30.0312 50.2252 29.7245 50.8226 29.1112 51.4359L28.0152 52.5319H30.1192V53.5959H26.3752ZM34.3652 49.3959C34.7692 49.3959 35.1092 49.5319 35.3852 49.8039C35.6612 50.0759 35.7992 50.4099 35.7992 50.8059C35.7992 51.2019 35.6612 51.5359 35.3852 51.8079C35.1092 52.0799 34.7692 52.2159 34.3652 52.2159H33.6272V53.5959H32.7992V49.3959H34.3652ZM34.3652 51.4419C34.5412 51.4419 34.6872 51.3819 34.8032 51.2619C34.9192 51.1379 34.9772 50.9859 34.9772 50.8059C34.9772 50.6219 34.9192 50.4699 34.8032 50.3499C34.6872 50.2299 34.5412 50.1699 34.3652 50.1699H33.6272V51.4419H34.3652ZM40.4482 49.3959V53.5959H39.6262V50.8719L38.4442 52.8219H38.3482L37.1662 50.8779V53.5959H36.3382V49.3959H37.1902L38.3962 51.3819L39.5962 49.3959H40.4482Z" fill="#A6D0F4"/>
<path d="M55.9285 50.2679C56.3072 50.3799 56.6138 50.5773 56.8485 50.8599C57.0885 51.1372 57.2085 51.4732 57.2085 51.8679C57.2085 52.4439 57.0138 52.8946 56.6245 53.2199C56.2405 53.5453 55.7685 53.7079 55.2085 53.7079C54.7712 53.7079 54.3792 53.6093 54.0325 53.4119C53.6912 53.2093 53.4432 52.9133 53.2885 52.5239L54.2325 51.9799C54.3712 52.4119 54.6965 52.6279 55.2085 52.6279C55.4912 52.6279 55.7098 52.5613 55.8645 52.4279C56.0245 52.2893 56.1045 52.1026 56.1045 51.8679C56.1045 51.6386 56.0245 51.4546 55.8645 51.3159C55.7098 51.1772 55.4912 51.1079 55.2085 51.1079H54.9685L54.5445 50.4679L55.6485 49.0279H53.4565V47.9959H56.9765V48.9079L55.9285 50.2679ZM61.4199 49.3959C61.8239 49.3959 62.1639 49.5319 62.4399 49.8039C62.7159 50.0759 62.8539 50.4099 62.8539 50.8059C62.8539 51.2019 62.7159 51.5359 62.4399 51.8079C62.1639 52.0799 61.8239 52.2159 61.4199 52.2159H60.6819V53.5959H59.8539V49.3959H61.4199ZM61.4199 51.4419C61.5959 51.4419 61.7419 51.3819 61.8579 51.2619C61.9739 51.1379 62.0319 50.9859 62.0319 50.8059C62.0319 50.6219 61.9739 50.4699 61.8579 50.3499C61.7419 50.2299 61.5959 50.1699 61.4199 50.1699H60.6819V51.4419H61.4199ZM67.5029 49.3959V53.5959H66.6809V50.8719L65.4989 52.8219H65.4029L64.2209 50.8779V53.5959H63.3929V49.3959H64.2449L65.4509 51.3819L66.6509 49.3959H67.5029Z" fill="#A6D0F4"/>
<path d="M84.9919 51.6199V52.6439H84.3919V53.5959H83.2799V52.6439H80.6319V51.6199L82.4959 47.9959H83.6799L81.8239 51.6199H83.2799V50.2919H84.3919V51.6199H84.9919ZM89.0605 49.3959C89.4645 49.3959 89.8045 49.5319 90.0805 49.8039C90.3565 50.0759 90.4945 50.4099 90.4945 50.8059C90.4945 51.2019 90.3565 51.5359 90.0805 51.8079C89.8045 52.0799 89.4645 52.2159 89.0605 52.2159H88.3225V53.5959H87.4945V49.3959H89.0605ZM89.0605 51.4419C89.2365 51.4419 89.3825 51.3819 89.4985 51.2619C89.6145 51.1379 89.6725 50.9859 89.6725 50.8059C89.6725 50.6219 89.6145 50.4699 89.4985 50.3499C89.3825 50.2299 89.2365 50.1699 89.0605 50.1699H88.3225V51.4419H89.0605ZM95.1436 49.3959V53.5959H94.3216V50.8719L93.1396 52.8219H93.0436L91.8616 50.8779V53.5959H91.0336V49.3959H91.8856L93.0916 51.3819L94.2916 49.3959H95.1436Z" fill="#A6D0F4"/>
<path d="M110.583 50.0359C111.121 50.0359 111.575 50.1986 111.943 50.5239C112.311 50.8439 112.495 51.2919 112.495 51.8679C112.495 52.4439 112.3 52.8946 111.911 53.2199C111.527 53.5453 111.055 53.7079 110.495 53.7079C110.041 53.7079 109.641 53.6066 109.295 53.4039C108.948 53.2013 108.697 52.9026 108.543 52.5079L109.487 51.9559C109.625 52.4039 109.961 52.6279 110.495 52.6279C110.777 52.6279 110.996 52.5613 111.151 52.4279C111.311 52.2893 111.391 52.1026 111.391 51.8679C111.391 51.6386 111.313 51.4546 111.159 51.3159C111.004 51.1772 110.793 51.1079 110.527 51.1079H108.831L109.055 47.9959H112.231V49.0279H110.079L110.007 50.0359H110.583ZM116.182 49.3959C116.586 49.3959 116.926 49.5319 117.202 49.8039C117.478 50.0759 117.616 50.4099 117.616 50.8059C117.616 51.2019 117.478 51.5359 117.202 51.8079C116.926 52.0799 116.586 52.2159 116.182 52.2159H115.444V53.5959H114.616V49.3959H116.182ZM116.182 51.4419C116.358 51.4419 116.504 51.3819 116.62 51.2619C116.736 51.1379 116.794 50.9859 116.794 50.8059C116.794 50.6219 116.736 50.4699 116.62 50.3499C116.504 50.2299 116.358 50.1699 116.182 50.1699H115.444V51.4419H116.182ZM122.265 49.3959V53.5959H121.443V50.8719L120.261 52.8219H120.165L118.983 50.8779V53.5959H118.155V49.3959H119.007L120.213 51.3819L121.413 49.3959H122.265Z" fill="#A6D0F4"/>
<path d="M137.603 49.8119C138.185 49.8279 138.657 50.0172 139.019 50.3799C139.382 50.7373 139.563 51.1959 139.563 51.7559C139.563 52.3266 139.374 52.7959 138.995 53.1639C138.617 53.5266 138.129 53.7079 137.531 53.7079C136.934 53.7079 136.446 53.5266 136.067 53.1639C135.694 52.8013 135.507 52.3319 135.507 51.7559C135.507 51.3293 135.617 50.9533 135.835 50.6279L137.579 47.9959H138.843L137.603 49.8119ZM136.867 52.4199C137.043 52.5853 137.265 52.6679 137.531 52.6679C137.798 52.6679 138.019 52.5853 138.195 52.4199C138.377 52.2546 138.467 52.0333 138.467 51.7559C138.467 51.4839 138.377 51.2652 138.195 51.0999C138.019 50.9346 137.798 50.8519 137.531 50.8519C137.265 50.8519 137.043 50.9346 136.867 51.0999C136.691 51.2599 136.603 51.4786 136.603 51.7559C136.603 52.0333 136.691 52.2546 136.867 52.4199ZM143.201 49.3959C143.605 49.3959 143.945 49.5319 144.221 49.8039C144.497 50.0759 144.635 50.4099 144.635 50.8059C144.635 51.2019 144.497 51.5359 144.221 51.8079C143.945 52.0799 143.605 52.2159 143.201 52.2159H142.463V53.5959H141.635V49.3959H143.201ZM143.201 51.4419C143.377 51.4419 143.523 51.3819 143.639 51.2619C143.755 51.1379 143.813 50.9859 143.813 50.8059C143.813 50.6219 143.755 50.4699 143.639 50.3499C143.523 50.2299 143.377 50.1699 143.201 50.1699H142.463V51.4419H143.201ZM149.284 49.3959V53.5959H148.462V50.8719L147.28 52.8219H147.184L146.002 50.8779V53.5959H145.174V49.3959H146.026L147.232 51.3819L148.432 49.3959H149.284Z" fill="#A6D0F4"/>
<g clip-path="url(#clip0_4_599)">
<path d="M0 37.594C0 36.4894 0.895431 35.594 2 35.594H62C63.1046 35.594 64 36.4894 64 37.594C64 38.6985 63.1046 39.594 62 39.594H2C0.895431 39.594 0 38.6985 0 37.594Z" fill="#2196F3"/>
<path d="M59.5 31.594C62.8113 31.594 65.5 34.2827 65.5 37.594C65.5 40.9052 62.8113 43.594 59.5 43.594C56.1887 43.594 53.5 40.9052 53.5 37.594C53.5 34.2827 56.1887 31.594 59.5 31.594Z" fill="#2196F3" stroke="white"/>
</g>
<rect x="167.5" y="24.094" width="56" height="30" rx="3.5" stroke="#82C4F8"/>
<path d="M187.542 37.8696C188.204 38.0656 188.741 38.4109 189.152 38.9056C189.572 39.3909 189.782 39.9789 189.782 40.6696C189.782 41.6776 189.441 42.4662 188.76 43.0356C188.088 43.6049 187.262 43.8896 186.282 43.8896C185.516 43.8896 184.83 43.7169 184.224 43.3716C183.626 43.0169 183.192 42.4989 182.922 41.8176L184.574 40.8656C184.816 41.6216 185.386 41.9996 186.282 41.9996C186.776 41.9996 187.159 41.8829 187.43 41.6496C187.71 41.4069 187.85 41.0802 187.85 40.6696C187.85 40.2682 187.71 39.9462 187.43 39.7036C187.159 39.4609 186.776 39.3396 186.282 39.3396H185.862L185.12 38.2196L187.052 35.6996H183.216V33.8936H189.376V35.4896L187.542 37.8696ZM198.293 33.8936C199.235 33.8936 200.029 34.2109 200.673 34.8456C201.317 35.4802 201.639 36.2596 201.639 37.1836C201.639 38.1076 201.317 38.8869 200.673 39.5216C200.029 40.1562 199.235 40.4736 198.293 40.4736H196.571V43.6936H194.639V33.8936H198.293ZM198.293 38.6676C198.703 38.6676 199.044 38.5276 199.315 38.2476C199.585 37.9582 199.721 37.6036 199.721 37.1836C199.721 36.7542 199.585 36.3996 199.315 36.1196C199.044 35.8396 198.703 35.6996 198.293 35.6996H196.571V38.6676H198.293ZM212.486 33.8936V43.6936H210.568V37.3376L207.81 41.8876H207.586L204.828 37.3516V43.6936H202.896V33.8936H204.884L207.698 38.5276L210.498 33.8936H212.486Z" fill="#2196F3"/>
<defs>
<clipPath id="clip0_4_599">
<rect width="67" height="15" fill="white" transform="translate(0 30.594)"/>
</clipPath>
</defs>
</svg>
