<svg width="153" height="44" viewBox="0 0 153 44" fill="none" xmlns="http://www.w3.org/2000/svg">
<rect x="0.5" y="0.5" width="152" height="43" rx="0.5" fill="white" stroke="#2196F3"/>
<circle cx="19" cy="22" r="7.5" fill="white" stroke="#223484"/>
<path d="M42.392 17.2V19.048H39.746V27H37.814V19.048H35.182V17.2H42.392ZM49.8465 27L47.8725 23.598H46.4025V27H44.4705V17.2H48.3905C49.2959 17.2 50.0659 17.5173 50.7005 18.152C51.3352 18.7867 51.6525 19.552 51.6525 20.448C51.6525 21.0547 51.4799 21.6193 51.1345 22.142C50.7892 22.6553 50.3319 23.0427 49.7625 23.304L51.9325 27H49.8465ZM46.4025 19.006V21.904H48.3905C48.7545 21.904 49.0672 21.764 49.3285 21.484C49.5899 21.1947 49.7205 20.8493 49.7205 20.448C49.7205 20.0467 49.5899 19.706 49.3285 19.426C49.0672 19.146 48.7545 19.006 48.3905 19.006H46.4025ZM60.3702 27L59.7822 25.236H55.8762L55.2882 27H53.2022L56.6322 17.2H59.0262L62.4702 27H60.3702ZM56.4922 23.43H59.1802L57.8362 19.426L56.4922 23.43ZM68.3137 17.2C69.6577 17.2 70.7777 17.6713 71.6737 18.614C72.5791 19.5567 73.0317 20.7187 73.0317 22.1C73.0317 23.4813 72.5791 24.6433 71.6737 25.586C70.7777 26.5287 69.6577 27 68.3137 27H64.4217V17.2H68.3137ZM68.3137 25.152C69.1631 25.152 69.8537 24.872 70.3857 24.312C70.9177 23.7427 71.1837 23.0053 71.1837 22.1C71.1837 21.1947 70.9177 20.462 70.3857 19.902C69.8537 19.3327 69.1631 19.048 68.3137 19.048H66.3537V25.152H68.3137ZM75.4022 17.2H77.3342V27H75.4022V17.2ZM86.6303 17.2V19.048H83.9843V27H82.0523V19.048H79.4203V17.2H86.6303ZM88.7088 17.2H90.6408V27H88.7088V17.2ZM101.701 25.726C100.712 26.706 99.5076 27.196 98.0889 27.196C96.6703 27.196 95.4663 26.706 94.4769 25.726C93.4969 24.7367 93.0069 23.528 93.0069 22.1C93.0069 20.672 93.4969 19.468 94.4769 18.488C95.4663 17.4987 96.6703 17.004 98.0889 17.004C99.5076 17.004 100.712 17.4987 101.701 18.488C102.69 19.468 103.185 20.672 103.185 22.1C103.185 23.528 102.69 24.7367 101.701 25.726ZM95.8349 24.41C96.4416 25.0073 97.1929 25.306 98.0889 25.306C98.9849 25.306 99.7363 25.0073 100.343 24.41C100.95 23.8033 101.253 23.0333 101.253 22.1C101.253 21.1667 100.95 20.3967 100.343 19.79C99.7363 19.1833 98.9849 18.88 98.0889 18.88C97.1929 18.88 96.4416 19.1833 95.8349 19.79C95.2283 20.3967 94.9249 21.1667 94.9249 22.1C94.9249 23.0333 95.2283 23.8033 95.8349 24.41ZM111.213 17.2H113.145V27H111.675L107.475 21.008V27H105.543V17.2H107.013L111.213 23.178V17.2ZM122.263 27L121.675 25.236H117.769L117.181 27H115.095L118.525 17.2H120.919L124.363 27H122.263ZM118.385 23.43H121.073L119.729 19.426L118.385 23.43ZM128.246 25.152H131.984V27H126.314V17.2H128.246V25.152Z" fill="#223484" fill-opacity="0.5"/>
</svg>
