<svg width="112" height="44" viewBox="0 0 112 44" fill="none" xmlns="http://www.w3.org/2000/svg">
<rect x="0.5" y="0.5" width="111" height="43" rx="0.5" fill="#E6F3FE" stroke="#2196F3"/>
<circle cx="19" cy="22" r="7.5" fill="white" stroke="#223484"/>
<circle cx="19" cy="22" r="5" fill="#223484"/>
<path d="M41.482 17.2H43.4V27H41.482V22.94H37.842V27H35.91V17.2H37.842V21.092H41.482V17.2ZM53.9765 17.2L50.6165 23.178V27H48.6985V23.178L45.3525 17.2H47.5365L49.6645 21.288L51.7925 17.2H53.9765ZM61.8379 21.918C62.6965 22.4127 63.1259 23.1593 63.1259 24.158C63.1259 24.9887 62.8319 25.67 62.2439 26.202C61.6559 26.734 60.9325 27 60.0739 27H55.9159V17.2H59.7799C60.6199 17.2 61.3245 17.4613 61.8939 17.984C62.4725 18.4973 62.7619 19.1553 62.7619 19.958C62.7619 20.77 62.4539 21.4233 61.8379 21.918ZM59.7799 19.006H57.8479V21.162H59.7799C60.0785 21.162 60.3259 21.0593 60.5219 20.854C60.7272 20.6487 60.8299 20.392 60.8299 20.084C60.8299 19.776 60.7319 19.5193 60.5359 19.314C60.3399 19.1087 60.0879 19.006 59.7799 19.006ZM60.0739 25.194C60.4005 25.194 60.6712 25.0867 60.8859 24.872C61.1005 24.648 61.2079 24.368 61.2079 24.032C61.2079 23.7053 61.1005 23.4347 60.8859 23.22C60.6712 22.996 60.4005 22.884 60.0739 22.884H57.8479V25.194H60.0739ZM70.7684 27L68.7944 23.598H67.3244V27H65.3924V17.2H69.3124C70.2178 17.2 70.9878 17.5173 71.6224 18.152C72.2571 18.7867 72.5744 19.552 72.5744 20.448C72.5744 21.0547 72.4018 21.6193 72.0564 22.142C71.7111 22.6553 71.2538 23.0427 70.6844 23.304L72.8544 27H70.7684ZM67.3244 19.006V21.904H69.3124C69.6764 21.904 69.9891 21.764 70.2504 21.484C70.5118 21.1947 70.6424 20.8493 70.6424 20.448C70.6424 20.0467 70.5118 19.706 70.2504 19.426C69.9891 19.146 69.6764 19.006 69.3124 19.006H67.3244ZM74.992 17.2H76.924V27H74.992V17.2ZM83.6301 17.2C84.9741 17.2 86.0941 17.6713 86.9901 18.614C87.8955 19.5567 88.3481 20.7187 88.3481 22.1C88.3481 23.4813 87.8955 24.6433 86.9901 25.586C86.0941 26.5287 84.9741 27 83.6301 27H79.7381V17.2H83.6301ZM83.6301 25.152C84.4795 25.152 85.1701 24.872 85.7021 24.312C86.2341 23.7427 86.5001 23.0053 86.5001 22.1C86.5001 21.1947 86.2341 20.462 85.7021 19.902C85.1701 19.3327 84.4795 19.048 83.6301 19.048H81.6701V25.152H83.6301Z" fill="#223484"/>
</svg>
