<svg width="123" height="32" viewBox="0 0 123 32" fill="none" xmlns="http://www.w3.org/2000/svg">
<rect x="0.5" y="0.5" width="122" height="30.1474" rx="3.5" stroke="#82C4F8"/>
<path d="M17.344 10.7324C18.032 10.7324 18.58 10.9564 18.988 11.4044C19.404 11.8524 19.612 12.4524 19.612 13.2044V16.9004H18.064V13.3124C18.064 12.9524 17.976 12.6724 17.8 12.4724C17.624 12.2724 17.376 12.1724 17.056 12.1724C16.704 12.1724 16.428 12.2884 16.228 12.5204C16.036 12.7524 15.94 13.0884 15.94 13.5284V16.9004H14.392V13.3124C14.392 12.9524 14.304 12.6724 14.128 12.4724C13.952 12.2724 13.704 12.1724 13.384 12.1724C13.04 12.1724 12.764 12.2884 12.556 12.5204C12.356 12.7524 12.256 13.0884 12.256 13.5284V16.9004H10.708V10.9004H12.256V11.5364C12.616 11.0004 13.172 10.7324 13.924 10.7324C14.66 10.7324 15.204 11.0204 15.556 11.5964C15.956 11.0204 16.552 10.7324 17.344 10.7324ZM27.5628 10.7324C28.2508 10.7324 28.7988 10.9564 29.2068 11.4044C29.6228 11.8524 29.8308 12.4524 29.8308 13.2044V16.9004H28.2828V13.3124C28.2828 12.9524 28.1948 12.6724 28.0188 12.4724C27.8428 12.2724 27.5948 12.1724 27.2747 12.1724C26.9228 12.1724 26.6468 12.2884 26.4468 12.5204C26.2548 12.7524 26.1588 13.0884 26.1588 13.5284V16.9004H24.6108V13.3124C24.6108 12.9524 24.5228 12.6724 24.3468 12.4724C24.1708 12.2724 23.9228 12.1724 23.6028 12.1724C23.2588 12.1724 22.9828 12.2884 22.7748 12.5204C22.5748 12.7524 22.4748 13.0884 22.4748 13.5284V16.9004H20.9268V10.9004H22.4748V11.5364C22.8348 11.0004 23.3908 10.7324 24.1428 10.7324C24.8788 10.7324 25.4228 11.0204 25.7748 11.5964C26.1748 11.0204 26.7708 10.7324 27.5628 10.7324ZM31.5175 18.1004H30.8335L35.6335 7.30039H36.3175L31.5175 18.1004ZM41.9748 8.50039H43.5228V16.9004H41.9748V16.1924C41.5188 16.7764 40.8708 17.0684 40.0308 17.0684C39.2228 17.0684 38.5308 16.7644 37.9548 16.1564C37.3868 15.5404 37.1028 14.7884 37.1028 13.9004C37.1028 13.0124 37.3868 12.2644 37.9548 11.6564C38.5308 11.0404 39.2228 10.7324 40.0308 10.7324C40.8708 10.7324 41.5188 11.0244 41.9748 11.6084V8.50039ZM39.1188 15.1244C39.4388 15.4364 39.8388 15.5924 40.3188 15.5924C40.7988 15.5924 41.1948 15.4364 41.5068 15.1244C41.8188 14.8044 41.9748 14.3964 41.9748 13.9004C41.9748 13.4044 41.8188 13.0004 41.5068 12.6884C41.1948 12.3684 40.7988 12.2084 40.3188 12.2084C39.8388 12.2084 39.4388 12.3684 39.1188 12.6884C38.8068 13.0004 38.6508 13.4044 38.6508 13.9004C38.6508 14.3964 38.8068 14.8044 39.1188 15.1244ZM49.4865 8.50039H51.0345V16.9004H49.4865V16.1924C49.0305 16.7764 48.3825 17.0684 47.5425 17.0684C46.7345 17.0684 46.0425 16.7644 45.4665 16.1564C44.8985 15.5404 44.6145 14.7884 44.6145 13.9004C44.6145 13.0124 44.8985 12.2644 45.4665 11.6564C46.0425 11.0404 46.7345 10.7324 47.5425 10.7324C48.3825 10.7324 49.0305 11.0244 49.4865 11.6084V8.50039ZM46.6305 15.1244C46.9505 15.4364 47.3505 15.5924 47.8305 15.5924C48.3105 15.5924 48.7065 15.4364 49.0185 15.1244C49.3305 14.8044 49.4865 14.3964 49.4865 13.9004C49.4865 13.4044 49.3305 13.0004 49.0185 12.6884C48.7065 12.3684 48.3105 12.2084 47.8305 12.2084C47.3505 12.2084 46.9505 12.3684 46.6305 12.6884C46.3185 13.0004 46.1625 13.4044 46.1625 13.9004C46.1625 14.3964 46.3185 14.8044 46.6305 15.1244ZM52.8222 18.1004H52.1382L56.9382 7.30039H57.6222L52.8222 18.1004ZM62.6434 10.9004H64.2994L62.1154 16.9004C61.8034 17.7644 61.3874 18.3884 60.8674 18.7724C60.3554 19.1644 59.7154 19.3404 58.9474 19.3004V17.8604C59.3634 17.8684 59.6914 17.7804 59.9314 17.5964C60.1794 17.4124 60.3754 17.1164 60.5194 16.7084L58.0594 10.9004H59.7514L61.3114 14.9324L62.6434 10.9004ZM68.9481 10.9004H70.6041L68.4201 16.9004C68.1081 17.7644 67.6921 18.3884 67.1721 18.7724C66.6601 19.1644 66.0201 19.3404 65.2521 19.3004V17.8604C65.6681 17.8684 65.9961 17.7804 66.2361 17.5964C66.4841 17.4124 66.6801 17.1164 66.8241 16.7084L64.3641 10.9004H66.0561L67.6161 14.9324L68.9481 10.9004ZM75.2528 10.9004H76.9088L74.7248 16.9004C74.4128 17.7644 73.9968 18.3884 73.4768 18.7724C72.9648 19.1644 72.3248 19.3404 71.5568 19.3004V17.8604C71.9728 17.8684 72.3008 17.7804 72.5408 17.5964C72.7888 17.4124 72.9848 17.1164 73.1288 16.7084L70.6688 10.9004H72.3608L73.9208 14.9324L75.2528 10.9004ZM81.5575 10.9004H83.2135L81.0295 16.9004C80.7175 17.7644 80.3015 18.3884 79.7815 18.7724C79.2695 19.1644 78.6295 19.3404 77.8615 19.3004V17.8604C78.2775 17.8684 78.6055 17.7804 78.8455 17.5964C79.0935 17.4124 79.2895 17.1164 79.4335 16.7084L76.9735 10.9004H78.6655L80.2255 14.9324L81.5575 10.9004Z" fill="#82C4F8"/>
<path fill-rule="evenodd" clip-rule="evenodd" d="M111.333 8.70789H110.5V7.03329H108.833V8.70789H102.167V7.03329H100.5V8.70789H99.6667C98.75 8.70789 98 9.46146 98 10.3825V22.1046C98 23.0257 98.75 23.7792 99.6667 23.7792H111.333C112.25 23.7792 113 23.0257 113 22.1046V10.3825C113 9.46146 112.25 8.70789 111.333 8.70789ZM111.334 22.1055H99.667V13.7325H111.334V22.1055ZM99.667 10.3829V12.0575H111.334V10.3829H99.667ZM101.333 15.4063H109.666V17.0809H101.333V15.4063ZM107.166 18.7558H101.333V20.4304H107.166V18.7558Z" fill="#82C4F8"/>
</svg>
