<svg width="219" height="31" viewBox="0 0 219 31" fill="none" xmlns="http://www.w3.org/2000/svg">
<rect x="0.5" y="0.5" width="105" height="30" rx="3.5" stroke="#82C4F8"/>
<path d="M1 4C1 2.34315 2.34315 1 4 1H40V30H4C2.34315 30 1 28.6569 1 27V4Z" fill="#DBDEEB"/>
<path d="M14.3142 13.28H11.9542V14.848H14.2342V15.728H11.9542V18H11.0342V12.4H14.3142V13.28ZM18.7668 18L17.5828 15.96H16.4948V18H15.5748V12.4H17.8148C18.3162 12.4 18.7402 12.576 19.0868 12.928C19.4388 13.2747 19.6148 13.6987 19.6148 14.2C19.6148 14.5573 19.5108 14.8853 19.3028 15.184C19.1002 15.4773 18.8335 15.6907 18.5028 15.824L19.7748 18H18.7668ZM16.4948 13.264V15.136H17.8148C18.0602 15.136 18.2682 15.0453 18.4388 14.864C18.6095 14.6827 18.6948 14.4613 18.6948 14.2C18.6948 13.9387 18.6095 13.7173 18.4388 13.536C18.2682 13.3547 18.0602 13.264 17.8148 13.264H16.4948ZM25.522 17.264C24.962 17.824 24.2767 18.104 23.466 18.104C22.6554 18.104 21.9674 17.824 21.402 17.264C20.842 16.6987 20.562 16.0107 20.562 15.2C20.562 14.3893 20.842 13.704 21.402 13.144C21.9674 12.5787 22.6554 12.296 23.466 12.296C24.2767 12.296 24.962 12.5787 25.522 13.144C26.0874 13.704 26.37 14.3893 26.37 15.2C26.37 16.0107 26.0874 16.6987 25.522 17.264ZM22.05 16.64C22.434 17.0187 22.906 17.208 23.466 17.208C24.026 17.208 24.4954 17.0187 24.874 16.64C25.258 16.256 25.45 15.776 25.45 15.2C25.45 14.624 25.258 14.1467 24.874 13.768C24.4954 13.384 24.026 13.192 23.466 13.192C22.906 13.192 22.434 13.384 22.05 13.768C21.6714 14.1467 21.482 14.624 21.482 15.2C21.482 15.776 21.6714 16.256 22.05 16.64ZM32.9692 12.4V18H32.0492V14.008L30.3452 16.824H30.2332L28.5292 14V18H27.6092V12.4H28.6012L30.2892 15.2L31.9852 12.4H32.9692Z" fill="#0E0E0E"/>
<path d="M48.378 20V18.558L51.724 15.114C52.4707 14.33 52.844 13.6767 52.844 13.154C52.844 12.7713 52.7227 12.4633 52.48 12.23C52.2467 11.9967 51.9433 11.88 51.57 11.88C50.8327 11.88 50.2867 12.2627 49.932 13.028L48.308 12.076C48.616 11.404 49.0593 10.8907 49.638 10.536C50.2167 10.1813 50.8513 10.004 51.542 10.004C52.4287 10.004 53.1893 10.284 53.824 10.844C54.4587 11.3947 54.776 12.1413 54.776 13.084C54.776 14.1013 54.2393 15.1467 53.166 16.22L51.248 18.138H54.93V20H48.378ZM63.5015 10.2C64.4442 10.2 65.2375 10.5173 65.8815 11.152C66.5255 11.7867 66.8475 12.566 66.8475 13.49C66.8475 14.414 66.5255 15.1933 65.8815 15.828C65.2375 16.4627 64.4442 16.78 63.5015 16.78H61.7795V20H59.8475V10.2H63.5015ZM63.5015 14.974C63.9122 14.974 64.2528 14.834 64.5235 14.554C64.7942 14.2647 64.9295 13.91 64.9295 13.49C64.9295 13.0607 64.7942 12.706 64.5235 12.426C64.2528 12.146 63.9122 12.006 63.5015 12.006H61.7795V14.974H63.5015ZM77.6953 10.2V20H75.7773V13.644L73.0193 18.194H72.7953L70.0373 13.658V20H68.1053V10.2H70.0933L72.9073 14.834L75.7073 10.2H77.6953Z" fill="#2196F3"/>
<path d="M99.1501 10.9141H97.9782C97.8985 10.9141 97.8235 10.9533 97.7767 11.0177L93.3376 17.1655L88.8985 11.0177C88.8517 10.9533 88.7767 10.9141 88.697 10.9141H87.5251C87.4235 10.9141 87.3642 11.0302 87.4235 11.1134L92.9329 18.7449C93.1329 19.0212 93.5423 19.0212 93.7407 18.7449L99.2501 11.1134C99.311 11.0302 99.2517 10.9141 99.1501 10.9141Z" fill="black"/>
<rect x="113.5" y="0.5" width="105" height="30" rx="3.5" stroke="#82C4F8"/>
<path d="M114 4C114 2.34315 115.343 1 117 1H153V30H117C115.343 30 114 28.6569 114 27V4Z" fill="#DBDEEB"/>
<path d="M134.316 12.4V13.28H132.74V18H131.82V13.28H130.236V12.4H134.316ZM139.756 17.264C139.196 17.824 138.511 18.104 137.7 18.104C136.89 18.104 136.202 17.824 135.636 17.264C135.076 16.6987 134.796 16.0107 134.796 15.2C134.796 14.3893 135.076 13.704 135.636 13.144C136.202 12.5787 136.89 12.296 137.7 12.296C138.511 12.296 139.196 12.5787 139.756 13.144C140.322 13.704 140.604 14.3893 140.604 15.2C140.604 16.0107 140.322 16.6987 139.756 17.264ZM136.284 16.64C136.668 17.0187 137.14 17.208 137.7 17.208C138.26 17.208 138.73 17.0187 139.108 16.64C139.492 16.256 139.684 15.776 139.684 15.2C139.684 14.624 139.492 14.1467 139.108 13.768C138.73 13.384 138.26 13.192 137.7 13.192C137.14 13.192 136.668 13.384 136.284 13.768C135.906 14.1467 135.716 14.624 135.716 15.2C135.716 15.776 135.906 16.256 136.284 16.64Z" fill="#0E0E0E"/>
<path d="M168.42 13.406C168.42 14.162 168.224 14.8247 167.832 15.394H167.846L164.794 20H162.582L164.766 16.808C163.749 16.7893 162.918 16.4673 162.274 15.842C161.639 15.2073 161.322 14.3953 161.322 13.406C161.322 12.4073 161.649 11.5907 162.302 10.956C162.965 10.3213 163.819 10.004 164.864 10.004C165.919 10.004 166.773 10.3213 167.426 10.956C168.089 11.5813 168.42 12.398 168.42 13.406ZM163.24 13.406C163.24 13.8913 163.394 14.2787 163.702 14.568C164.019 14.8573 164.407 15.002 164.864 15.002C165.34 15.002 165.732 14.8573 166.04 14.568C166.348 14.2787 166.502 13.8913 166.502 13.406C166.502 12.9207 166.348 12.538 166.04 12.258C165.732 11.9687 165.34 11.824 164.864 11.824C164.407 11.824 164.019 11.9687 163.702 12.258C163.394 12.5473 163.24 12.93 163.24 13.406ZM176.802 10.2C177.745 10.2 178.538 10.5173 179.182 11.152C179.826 11.7867 180.148 12.566 180.148 13.49C180.148 14.414 179.826 15.1933 179.182 15.828C178.538 16.4627 177.745 16.78 176.802 16.78H175.08V20H173.148V10.2H176.802ZM176.802 14.974C177.213 14.974 177.554 14.834 177.824 14.554C178.095 14.2647 178.23 13.91 178.23 13.49C178.23 13.0607 178.095 12.706 177.824 12.426C177.554 12.146 177.213 12.006 176.802 12.006H175.08V14.974H176.802ZM190.996 10.2V20H189.078V13.644L186.32 18.194H186.096L183.338 13.658V20H181.406V10.2H183.394L186.208 14.834L189.008 10.2H190.996Z" fill="#2196F3"/>
<path d="M212.15 10.9141H210.978C210.899 10.9141 210.824 10.9533 210.777 11.0177L206.338 17.1655L201.899 11.0177C201.852 10.9533 201.777 10.9141 201.697 10.9141H200.525C200.424 10.9141 200.364 11.0302 200.424 11.1134L205.933 18.7449C206.133 19.0212 206.542 19.0212 206.741 18.7449L212.25 11.1134C212.311 11.0302 212.252 10.9141 212.15 10.9141Z" fill="black"/>
</svg>
