<svg width="207" height="30" viewBox="0 0 207 30" fill="none" xmlns="http://www.w3.org/2000/svg">
<rect width="207" height="30" rx="5" fill="#2196F3"/>
<path d="M38.1757 18L37.7347 16.731H35.0527L34.6117 18H33.4867L35.7727 11.7H37.0147L39.2917 18H38.1757ZM35.3947 15.759H37.3927L36.3937 12.915L35.3947 15.759ZM42.8942 11.7C43.7582 11.7 44.4752 12.003 45.0452 12.609C45.6212 13.215 45.9092 13.962 45.9092 14.85C45.9092 15.732 45.6212 16.479 45.0452 17.091C44.4752 17.697 43.7582 18 42.8942 18H40.4192V11.7H42.8942ZM42.8942 17.01C43.4882 17.01 43.9712 16.806 44.3432 16.398C44.7212 15.99 44.9102 15.474 44.9102 14.85C44.9102 14.22 44.7212 13.704 44.3432 13.302C43.9712 12.894 43.4882 12.69 42.8942 12.69H41.4542V17.01H42.8942ZM49.7778 11.7C50.6418 11.7 51.3588 12.003 51.9288 12.609C52.5048 13.215 52.7928 13.962 52.7928 14.85C52.7928 15.732 52.5048 16.479 51.9288 17.091C51.3588 17.697 50.6418 18 49.7778 18H47.3028V11.7H49.7778ZM49.7778 17.01C50.3718 17.01 50.8548 16.806 51.2268 16.398C51.6048 15.99 51.7938 15.474 51.7938 14.85C51.7938 14.22 51.6048 13.704 51.2268 13.302C50.8548 12.894 50.3718 12.69 49.7778 12.69H48.3378V17.01H49.7778ZM62.9163 11.7V18H61.8813V13.509L59.9643 16.677H59.8383L57.9213 13.5V18H56.8863V11.7H58.0023L59.9013 14.85L61.8093 11.7H62.9163ZM69.8875 17.172C69.2575 17.802 68.4865 18.117 67.5745 18.117C66.6625 18.117 65.8885 17.802 65.2525 17.172C64.6225 16.536 64.3075 15.762 64.3075 14.85C64.3075 13.938 64.6225 13.167 65.2525 12.537C65.8885 11.901 66.6625 11.583 67.5745 11.583C68.4865 11.583 69.2575 11.901 69.8875 12.537C70.5235 13.167 70.8415 13.938 70.8415 14.85C70.8415 15.762 70.5235 16.536 69.8875 17.172ZM65.9815 16.47C66.4135 16.896 66.9445 17.109 67.5745 17.109C68.2045 17.109 68.7325 16.896 69.1585 16.47C69.5905 16.038 69.8065 15.498 69.8065 14.85C69.8065 14.202 69.5905 13.665 69.1585 13.239C68.7325 12.807 68.2045 12.591 67.5745 12.591C66.9445 12.591 66.4135 12.807 65.9815 13.239C65.5555 13.665 65.3425 14.202 65.3425 14.85C65.3425 15.498 65.5555 16.038 65.9815 16.47ZM75.8266 18L74.4946 15.705H73.2706V18H72.2356V11.7H74.7556C75.3196 11.7 75.7966 11.898 76.1866 12.294C76.5826 12.684 76.7806 13.161 76.7806 13.725C76.7806 14.127 76.6636 14.496 76.4296 14.832C76.2016 15.162 75.9016 15.402 75.5296 15.552L76.9606 18H75.8266ZM73.2706 12.672V14.778H74.7556C75.0316 14.778 75.2656 14.676 75.4576 14.472C75.6496 14.268 75.7456 14.019 75.7456 13.725C75.7456 13.431 75.6496 13.182 75.4576 12.978C75.2656 12.774 75.0316 12.672 74.7556 12.672H73.2706ZM79.2401 17.01H82.0301V18H78.2051V11.7H81.9851V12.69H79.2401V14.328H81.7601V15.309H79.2401V17.01ZM88.2246 18.117C87.6186 18.117 87.1026 17.979 86.6766 17.703C86.2566 17.427 85.9626 17.049 85.7946 16.569L86.6856 16.047C86.9376 16.755 87.4596 17.109 88.2516 17.109C88.6416 17.109 88.9326 17.034 89.1246 16.884C89.3226 16.728 89.4216 16.527 89.4216 16.281C89.4216 16.023 89.3166 15.828 89.1066 15.696C88.8966 15.558 88.5246 15.408 87.9906 15.246C87.6906 15.156 87.4476 15.072 87.2616 14.994C87.0756 14.916 86.8776 14.808 86.6676 14.67C86.4636 14.526 86.3106 14.349 86.2086 14.139C86.1066 13.929 86.0556 13.683 86.0556 13.401C86.0556 12.843 86.2536 12.402 86.6496 12.078C87.0456 11.748 87.5226 11.583 88.0806 11.583C88.5846 11.583 89.0256 11.706 89.4036 11.952C89.7816 12.198 90.0726 12.537 90.2766 12.969L89.4036 13.473C89.1396 12.885 88.6986 12.591 88.0806 12.591C87.7806 12.591 87.5406 12.663 87.3606 12.807C87.1806 12.945 87.0906 13.134 87.0906 13.374C87.0906 13.608 87.1806 13.794 87.3606 13.932C87.5466 14.064 87.8796 14.205 88.3596 14.355C88.5996 14.433 88.7736 14.493 88.8816 14.535C88.9956 14.571 89.1516 14.631 89.3496 14.715C89.5536 14.799 89.7066 14.883 89.8086 14.967C89.9106 15.051 90.0186 15.156 90.1326 15.282C90.2526 15.408 90.3366 15.552 90.3846 15.714C90.4326 15.876 90.4566 16.059 90.4566 16.263C90.4566 16.833 90.2496 17.286 89.8356 17.622C89.4276 17.952 88.8906 18.117 88.2246 18.117ZM95.4893 11.7H96.5243V18H95.4893V15.273H92.7893V18H91.7543V11.7H92.7893V14.283H95.4893V11.7ZM98.2336 11.7H99.2686V18H98.2336V11.7ZM104.668 12.69H102.013V14.454H104.578V15.444H102.013V18H100.978V11.7H104.668V12.69ZM110.181 11.7V12.69H108.408V18H107.373V12.69H105.591V11.7H110.181ZM118.191 11.7V12.69H116.418V18H115.383V12.69H113.601V11.7H118.191ZM119.406 11.7H120.441V18H119.406V11.7ZM128.18 11.7V18H127.145V13.509L125.228 16.677H125.102L123.185 13.5V18H122.15V11.7H123.266L125.165 14.85L127.073 11.7H128.18ZM130.922 17.01H133.712V18H129.887V11.7H133.667V12.69H130.922V14.328H133.442V15.309H130.922V17.01ZM140.284 11.7C141.148 11.7 141.865 12.003 142.435 12.609C143.011 13.215 143.299 13.962 143.299 14.85C143.299 15.732 143.011 16.479 142.435 17.091C141.865 17.697 141.148 18 140.284 18H137.809V11.7H140.284ZM140.284 17.01C140.878 17.01 141.361 16.806 141.733 16.398C142.111 15.99 142.3 15.474 142.3 14.85C142.3 14.22 142.111 13.704 141.733 13.302C141.361 12.894 140.878 12.69 140.284 12.69H138.844V17.01H140.284ZM148.681 17.523C148.237 17.919 147.664 18.117 146.962 18.117C146.26 18.117 145.687 17.919 145.243 17.523C144.799 17.121 144.577 16.584 144.577 15.912V11.7H145.612V15.849C145.612 16.233 145.723 16.539 145.945 16.767C146.173 16.995 146.512 17.109 146.962 17.109C147.412 17.109 147.748 16.995 147.97 16.767C148.198 16.539 148.312 16.233 148.312 15.849V11.7H149.347V15.912C149.347 16.584 149.125 17.121 148.681 17.523ZM154.578 18L153.246 15.705H152.022V18H150.987V11.7H153.507C154.071 11.7 154.548 11.898 154.938 12.294C155.334 12.684 155.532 13.161 155.532 13.725C155.532 14.127 155.415 14.496 155.181 14.832C154.953 15.162 154.653 15.402 154.281 15.552L155.712 18H154.578ZM152.022 12.672V14.778H153.507C153.783 14.778 154.017 14.676 154.209 14.472C154.401 14.268 154.497 14.019 154.497 13.725C154.497 13.431 154.401 13.182 154.209 12.978C154.017 12.774 153.783 12.672 153.507 12.672H152.022ZM161.061 18L160.62 16.731H157.938L157.497 18H156.372L158.658 11.7H159.9L162.177 18H161.061ZM158.28 15.759H160.278L159.279 12.915L158.28 15.759ZM166.951 11.7V12.69H165.178V18H164.143V12.69H162.361V11.7H166.951ZM168.166 11.7H169.201V18H168.166V11.7ZM176.175 17.172C175.545 17.802 174.774 18.117 173.862 18.117C172.95 18.117 172.176 17.802 171.54 17.172C170.91 16.536 170.595 15.762 170.595 14.85C170.595 13.938 170.91 13.167 171.54 12.537C172.176 11.901 172.95 11.583 173.862 11.583C174.774 11.583 175.545 11.901 176.175 12.537C176.811 13.167 177.129 13.938 177.129 14.85C177.129 15.762 176.811 16.536 176.175 17.172ZM172.269 16.47C172.701 16.896 173.232 17.109 173.862 17.109C174.492 17.109 175.02 16.896 175.446 16.47C175.878 16.038 176.094 15.498 176.094 14.85C176.094 14.202 175.878 13.665 175.446 13.239C175.02 12.807 174.492 12.591 173.862 12.591C173.232 12.591 172.701 12.807 172.269 13.239C171.843 13.665 171.63 14.202 171.63 14.85C171.63 15.498 171.843 16.038 172.269 16.47ZM182.303 11.7H183.338V18H182.528L179.558 13.725V18H178.523V11.7H179.333L182.303 15.975V11.7ZM187.056 18.117C186.45 18.117 185.934 17.979 185.508 17.703C185.088 17.427 184.794 17.049 184.626 16.569L185.517 16.047C185.769 16.755 186.291 17.109 187.083 17.109C187.473 17.109 187.764 17.034 187.956 16.884C188.154 16.728 188.253 16.527 188.253 16.281C188.253 16.023 188.148 15.828 187.938 15.696C187.728 15.558 187.356 15.408 186.822 15.246C186.522 15.156 186.279 15.072 186.093 14.994C185.907 14.916 185.709 14.808 185.499 14.67C185.295 14.526 185.142 14.349 185.04 14.139C184.938 13.929 184.887 13.683 184.887 13.401C184.887 12.843 185.085 12.402 185.481 12.078C185.877 11.748 186.354 11.583 186.912 11.583C187.416 11.583 187.857 11.706 188.235 11.952C188.613 12.198 188.904 12.537 189.108 12.969L188.235 13.473C187.971 12.885 187.53 12.591 186.912 12.591C186.612 12.591 186.372 12.663 186.192 12.807C186.012 12.945 185.922 13.134 185.922 13.374C185.922 13.608 186.012 13.794 186.192 13.932C186.378 14.064 186.711 14.205 187.191 14.355C187.431 14.433 187.605 14.493 187.713 14.535C187.827 14.571 187.983 14.631 188.181 14.715C188.385 14.799 188.538 14.883 188.64 14.967C188.742 15.051 188.85 15.156 188.964 15.282C189.084 15.408 189.168 15.552 189.216 15.714C189.264 15.876 189.288 16.059 189.288 16.263C189.288 16.833 189.081 17.286 188.667 17.622C188.259 17.952 187.722 18.117 187.056 18.117Z" fill="white"/>
<path d="M16.5256 14.4372H23V17.5256H16.5256V24H13.4372V17.5256H7V14.4372H13.4372V8H16.5256V14.4372Z" fill="white"/>
</svg>
