<svg width="123" height="32" viewBox="0 0 123 32" fill="none" xmlns="http://www.w3.org/2000/svg">
<rect x="0.5" y="0.5" width="122" height="30.1474" rx="3.5" stroke="#82C4F8"/>
<path d="M17.344 10.7304C18.032 10.7304 18.58 10.9544 18.988 11.4024C19.404 11.8504 19.612 12.4504 19.612 13.2024V16.8984H18.064V13.3104C18.064 12.9504 17.976 12.6704 17.8 12.4704C17.624 12.2704 17.376 12.1704 17.056 12.1704C16.704 12.1704 16.428 12.2864 16.228 12.5184C16.036 12.7504 15.94 13.0864 15.94 13.5264V16.8984H14.392V13.3104C14.392 12.9504 14.304 12.6704 14.128 12.4704C13.952 12.2704 13.704 12.1704 13.384 12.1704C13.04 12.1704 12.764 12.2864 12.556 12.5184C12.356 12.7504 12.256 13.0864 12.256 13.5264V16.8984H10.708V10.8984H12.256V11.5344C12.616 10.9984 13.172 10.7304 13.924 10.7304C14.66 10.7304 15.204 11.0184 15.556 11.5944C15.956 11.0184 16.552 10.7304 17.344 10.7304ZM27.5628 10.7304C28.2508 10.7304 28.7988 10.9544 29.2068 11.4024C29.6228 11.8504 29.8308 12.4504 29.8308 13.2024V16.8984H28.2828V13.3104C28.2828 12.9504 28.1948 12.6704 28.0188 12.4704C27.8428 12.2704 27.5948 12.1704 27.2747 12.1704C26.9228 12.1704 26.6468 12.2864 26.4468 12.5184C26.2548 12.7504 26.1588 13.0864 26.1588 13.5264V16.8984H24.6108V13.3104C24.6108 12.9504 24.5228 12.6704 24.3468 12.4704C24.1708 12.2704 23.9228 12.1704 23.6028 12.1704C23.2588 12.1704 22.9828 12.2864 22.7748 12.5184C22.5748 12.7504 22.4748 13.0864 22.4748 13.5264V16.8984H20.9268V10.8984H22.4748V11.5344C22.8348 10.9984 23.3908 10.7304 24.1428 10.7304C24.8788 10.7304 25.4228 11.0184 25.7748 11.5944C26.1748 11.0184 26.7708 10.7304 27.5628 10.7304ZM31.5175 18.0984H30.8335L35.6335 7.29844H36.3175L31.5175 18.0984ZM41.9748 8.49844H43.5228V16.8984H41.9748V16.1904C41.5188 16.7744 40.8708 17.0664 40.0308 17.0664C39.2228 17.0664 38.5308 16.7624 37.9548 16.1544C37.3868 15.5384 37.1028 14.7864 37.1028 13.8984C37.1028 13.0104 37.3868 12.2624 37.9548 11.6544C38.5308 11.0384 39.2228 10.7304 40.0308 10.7304C40.8708 10.7304 41.5188 11.0224 41.9748 11.6064V8.49844ZM39.1188 15.1224C39.4388 15.4344 39.8388 15.5904 40.3188 15.5904C40.7988 15.5904 41.1948 15.4344 41.5068 15.1224C41.8188 14.8024 41.9748 14.3944 41.9748 13.8984C41.9748 13.4024 41.8188 12.9984 41.5068 12.6864C41.1948 12.3664 40.7988 12.2064 40.3188 12.2064C39.8388 12.2064 39.4388 12.3664 39.1188 12.6864C38.8068 12.9984 38.6508 13.4024 38.6508 13.8984C38.6508 14.3944 38.8068 14.8024 39.1188 15.1224ZM49.4865 8.49844H51.0345V16.8984H49.4865V16.1904C49.0305 16.7744 48.3825 17.0664 47.5425 17.0664C46.7345 17.0664 46.0425 16.7624 45.4665 16.1544C44.8985 15.5384 44.6145 14.7864 44.6145 13.8984C44.6145 13.0104 44.8985 12.2624 45.4665 11.6544C46.0425 11.0384 46.7345 10.7304 47.5425 10.7304C48.3825 10.7304 49.0305 11.0224 49.4865 11.6064V8.49844ZM46.6305 15.1224C46.9505 15.4344 47.3505 15.5904 47.8305 15.5904C48.3105 15.5904 48.7065 15.4344 49.0185 15.1224C49.3305 14.8024 49.4865 14.3944 49.4865 13.8984C49.4865 13.4024 49.3305 12.9984 49.0185 12.6864C48.7065 12.3664 48.3105 12.2064 47.8305 12.2064C47.3505 12.2064 46.9505 12.3664 46.6305 12.6864C46.3185 12.9984 46.1625 13.4024 46.1625 13.8984C46.1625 14.3944 46.3185 14.8024 46.6305 15.1224ZM52.8222 18.0984H52.1382L56.9382 7.29844H57.6222L52.8222 18.0984ZM62.6434 10.8984H64.2994L62.1154 16.8984C61.8034 17.7624 61.3874 18.3864 60.8674 18.7704C60.3554 19.1624 59.7154 19.3384 58.9474 19.2984V17.8584C59.3634 17.8664 59.6914 17.7784 59.9314 17.5944C60.1794 17.4104 60.3754 17.1144 60.5194 16.7064L58.0594 10.8984H59.7514L61.3114 14.9304L62.6434 10.8984ZM68.9481 10.8984H70.6041L68.4201 16.8984C68.1081 17.7624 67.6921 18.3864 67.1721 18.7704C66.6601 19.1624 66.0201 19.3384 65.2521 19.2984V17.8584C65.6681 17.8664 65.9961 17.7784 66.2361 17.5944C66.4841 17.4104 66.6801 17.1144 66.8241 16.7064L64.3641 10.8984H66.0561L67.6161 14.9304L68.9481 10.8984ZM75.2528 10.8984H76.9088L74.7248 16.8984C74.4128 17.7624 73.9968 18.3864 73.4768 18.7704C72.9648 19.1624 72.3248 19.3384 71.5568 19.2984V17.8584C71.9728 17.8664 72.3008 17.7784 72.5408 17.5944C72.7888 17.4104 72.9848 17.1144 73.1288 16.7064L70.6688 10.8984H72.3608L73.9208 14.9304L75.2528 10.8984ZM81.5575 10.8984H83.2135L81.0295 16.8984C80.7175 17.7624 80.3015 18.3864 79.7815 18.7704C79.2695 19.1624 78.6295 19.3384 77.8615 19.2984V17.8584C78.2775 17.8664 78.6055 17.7784 78.8455 17.5944C79.0935 17.4104 79.2895 17.1144 79.4335 16.7064L76.9735 10.8984H78.6655L80.2255 14.9304L81.5575 10.8984Z" fill="#82C4F8"/>
<path fill-rule="evenodd" clip-rule="evenodd" d="M111.333 8.70789H110.5V7.03329H108.833V8.70789H102.167V7.03329H100.5V8.70789H99.6667C98.75 8.70789 98 9.46146 98 10.3825V22.1046C98 23.0257 98.75 23.7792 99.6667 23.7792H111.333C112.25 23.7792 113 23.0257 113 22.1046V10.3825C113 9.46146 112.25 8.70789 111.333 8.70789ZM111.334 22.1035H99.667V13.7306H111.334V22.1035ZM99.667 10.3831V12.0577H111.334V10.3831H99.667ZM101.333 15.4063H109.666V17.0809H101.333V15.4063ZM107.166 18.754H101.333V20.4286H107.166V18.754Z" fill="#82C4F8"/>
</svg>
