<svg width="208" height="42" viewBox="0 0 208 42" fill="none" xmlns="http://www.w3.org/2000/svg">
<rect width="208" height="42" rx="2" fill="#EDEDED"/>
<path d="M28 20.0013H16.14L19.77 15.6413C19.9397 15.437 20.0214 15.1738 19.997 14.9093C19.9726 14.6449 19.8442 14.401 19.64 14.2313C19.4358 14.0615 19.1725 13.9799 18.9081 14.0042C18.6437 14.0286 18.3997 14.157 18.23 14.3613L13.23 20.3613C13.1964 20.409 13.1663 20.4591 13.14 20.5113C13.14 20.5613 13.14 20.5913 13.07 20.6413C13.0247 20.7559 13.0009 20.878 13 21.0013C13.0009 21.1245 13.0247 21.2466 13.07 21.3613C13.07 21.4113 13.07 21.4413 13.14 21.4913C13.1663 21.5434 13.1964 21.5935 13.23 21.6413L18.23 27.6413C18.324 27.7541 18.4418 27.8449 18.5748 27.9071C18.7079 27.9694 18.8531 28.0015 19 28.0013C19.2337 28.0017 19.4601 27.9203 19.64 27.7713C19.7413 27.6873 19.825 27.5842 19.8863 27.4679C19.9477 27.3515 19.9855 27.2242 19.9975 27.0932C20.0096 26.9622 19.9957 26.8302 19.9567 26.7046C19.9176 26.579 19.8542 26.4623 19.77 26.3613L16.14 22.0013H28C28.2652 22.0013 28.5196 21.8959 28.7071 21.7084C28.8946 21.5208 29 21.2665 29 21.0013C29 20.736 28.8946 20.4817 28.7071 20.2941C28.5196 20.1066 28.2652 20.0013 28 20.0013Z" fill="#223484"/>
<path d="M45.832 19.418C46.6907 19.9127 47.12 20.6593 47.12 21.658C47.12 22.4887 46.826 23.17 46.238 23.702C45.65 24.234 44.9267 24.5 44.068 24.5H39.91V14.7H43.774C44.614 14.7 45.3187 14.9613 45.888 15.484C46.4667 15.9973 46.756 16.6553 46.756 17.458C46.756 18.27 46.448 18.9233 45.832 19.418ZM43.774 16.506H41.842V18.662H43.774C44.0727 18.662 44.32 18.5593 44.516 18.354C44.7213 18.1487 44.824 17.892 44.824 17.584C44.824 17.276 44.726 17.0193 44.53 16.814C44.334 16.6087 44.082 16.506 43.774 16.506ZM44.068 22.694C44.3947 22.694 44.6653 22.5867 44.88 22.372C45.0947 22.148 45.202 21.868 45.202 21.532C45.202 21.2053 45.0947 20.9347 44.88 20.72C44.6653 20.496 44.3947 20.384 44.068 20.384H41.842V22.694H44.068ZM55.6866 24.5L55.0986 22.736H51.1926L50.6046 24.5H48.5186L51.9486 14.7H54.3426L57.7866 24.5H55.6866ZM51.8086 20.93H54.4966L53.1526 16.926L51.8086 20.93ZM64.0307 24.696C62.556 24.696 61.338 24.206 60.3767 23.226C59.4153 22.246 58.9347 21.0373 58.9347 19.6C58.9347 18.1533 59.4153 16.9447 60.3767 15.974C61.338 14.994 62.556 14.504 64.0307 14.504C64.9173 14.504 65.734 14.714 66.4807 15.134C67.2367 15.5447 67.8247 16.1047 68.2447 16.814L66.5787 17.78C66.336 17.3413 65.9907 17.0007 65.5427 16.758C65.0947 16.506 64.5907 16.38 64.0307 16.38C63.0787 16.38 62.3087 16.6787 61.7207 17.276C61.142 17.8733 60.8527 18.648 60.8527 19.6C60.8527 20.5427 61.142 21.3127 61.7207 21.91C62.3087 22.5073 63.0787 22.806 64.0307 22.806C64.5907 22.806 65.0947 22.6847 65.5427 22.442C66 22.19 66.3453 21.8493 66.5787 21.42L68.2447 22.386C67.8247 23.0953 67.2413 23.66 66.4947 24.08C65.748 24.4907 64.9267 24.696 64.0307 24.696ZM78.0895 24.5H75.8635L72.3635 19.908V24.5H70.4315V14.7H72.3635V19.026L75.7235 14.7H77.9495L74.3235 19.46L78.0895 24.5ZM91.0268 14.7V16.548H88.3808V24.5H86.4488V16.548H83.8168V14.7H91.0268ZM100.791 23.226C99.8014 24.206 98.5974 24.696 97.1788 24.696C95.7601 24.696 94.5561 24.206 93.5668 23.226C92.5868 22.2367 92.0968 21.028 92.0968 19.6C92.0968 18.172 92.5868 16.968 93.5668 15.988C94.5561 14.9987 95.7601 14.504 97.1788 14.504C98.5974 14.504 99.8014 14.9987 100.791 15.988C101.78 16.968 102.275 18.172 102.275 19.6C102.275 21.028 101.78 22.2367 100.791 23.226ZM94.9248 21.91C95.5314 22.5073 96.2828 22.806 97.1788 22.806C98.0748 22.806 98.8261 22.5073 99.4328 21.91C100.039 21.3033 100.343 20.5333 100.343 19.6C100.343 18.6667 100.039 17.8967 99.4328 17.29C98.8261 16.6833 98.0748 16.38 97.1788 16.38C96.2828 16.38 95.5314 16.6833 94.9248 17.29C94.3181 17.8967 94.0148 18.6667 94.0148 19.6C94.0148 20.5333 94.3181 21.3033 94.9248 21.91ZM113.025 14.7C114.369 14.7 115.489 15.1713 116.385 16.114C117.29 17.0567 117.743 18.2187 117.743 19.6C117.743 20.9813 117.29 22.1433 116.385 23.086C115.489 24.0287 114.369 24.5 113.025 24.5H109.133V14.7H113.025ZM113.025 22.652C113.874 22.652 114.565 22.372 115.097 21.812C115.629 21.2427 115.895 20.5053 115.895 19.6C115.895 18.6947 115.629 17.962 115.097 17.402C114.565 16.8327 113.874 16.548 113.025 16.548H111.065V22.652H113.025ZM126.058 24.5L125.47 22.736H121.564L120.976 24.5H118.89L122.32 14.7H124.714L128.158 24.5H126.058ZM122.18 20.93H124.868L123.524 16.926L122.18 20.93ZM133.236 24.696C132.266 24.696 131.449 24.4813 130.786 24.052C130.124 23.6133 129.657 23.0207 129.386 22.274L131.038 21.308C131.421 22.3067 132.172 22.806 133.292 22.806C133.834 22.806 134.23 22.708 134.482 22.512C134.734 22.316 134.86 22.0687 134.86 21.77C134.86 21.4247 134.706 21.1587 134.398 20.972C134.09 20.776 133.54 20.566 132.746 20.342C132.308 20.2113 131.934 20.0807 131.626 19.95C131.328 19.8193 131.024 19.6467 130.716 19.432C130.418 19.208 130.189 18.928 130.03 18.592C129.872 18.256 129.792 17.864 129.792 17.416C129.792 16.5293 130.105 15.8247 130.73 15.302C131.365 14.77 132.126 14.504 133.012 14.504C133.806 14.504 134.501 14.7 135.098 15.092C135.705 15.4747 136.176 16.0113 136.512 16.702L134.888 17.64C134.496 16.8 133.871 16.38 133.012 16.38C132.611 16.38 132.294 16.4733 132.06 16.66C131.836 16.8373 131.724 17.0707 131.724 17.36C131.724 17.668 131.85 17.92 132.102 18.116C132.364 18.3027 132.858 18.508 133.586 18.732C133.885 18.8253 134.109 18.9 134.258 18.956C134.417 19.0027 134.627 19.082 134.888 19.194C135.159 19.2967 135.364 19.3947 135.504 19.488C135.654 19.5813 135.822 19.7073 136.008 19.866C136.195 20.0247 136.335 20.188 136.428 20.356C136.531 20.524 136.615 20.7293 136.68 20.972C136.755 21.2053 136.792 21.462 136.792 21.742C136.792 22.6473 136.461 23.366 135.798 23.898C135.145 24.43 134.291 24.696 133.236 24.696ZM144.556 14.7H146.474V24.5H144.556V20.44H140.916V24.5H138.984V14.7H140.916V18.592H144.556V14.7ZM155.217 19.418C156.075 19.9127 156.505 20.6593 156.505 21.658C156.505 22.4887 156.211 23.17 155.623 23.702C155.035 24.234 154.311 24.5 153.453 24.5H149.295V14.7H153.159C153.999 14.7 154.703 14.9613 155.273 15.484C155.851 15.9973 156.141 16.6553 156.141 17.458C156.141 18.27 155.833 18.9233 155.217 19.418ZM153.159 16.506H151.227V18.662H153.159C153.457 18.662 153.705 18.5593 153.901 18.354C154.106 18.1487 154.209 17.892 154.209 17.584C154.209 17.276 154.111 17.0193 153.915 16.814C153.719 16.6087 153.467 16.506 153.159 16.506ZM153.453 22.694C153.779 22.694 154.05 22.5867 154.265 22.372C154.479 22.148 154.587 21.868 154.587 21.532C154.587 21.2053 154.479 20.9347 154.265 20.72C154.05 20.496 153.779 20.384 153.453 20.384H151.227V22.694H153.453ZM167.017 23.226C166.028 24.206 164.824 24.696 163.405 24.696C161.987 24.696 160.783 24.206 159.793 23.226C158.813 22.2367 158.323 21.028 158.323 19.6C158.323 18.172 158.813 16.968 159.793 15.988C160.783 14.9987 161.987 14.504 163.405 14.504C164.824 14.504 166.028 14.9987 167.017 15.988C168.007 16.968 168.501 18.172 168.501 19.6C168.501 21.028 168.007 22.2367 167.017 23.226ZM161.151 21.91C161.758 22.5073 162.509 22.806 163.405 22.806C164.301 22.806 165.053 22.5073 165.659 21.91C166.266 21.3033 166.569 20.5333 166.569 19.6C166.569 18.6667 166.266 17.8967 165.659 17.29C165.053 16.6833 164.301 16.38 163.405 16.38C162.509 16.38 161.758 16.6833 161.151 17.29C160.545 17.8967 160.241 18.6667 160.241 19.6C160.241 20.5333 160.545 21.3033 161.151 21.91ZM176.804 24.5L176.216 22.736H172.31L171.722 24.5H169.636L173.066 14.7H175.46L178.904 24.5H176.804ZM172.926 20.93H175.614L174.27 16.926L172.926 20.93ZM186.231 24.5L184.257 21.098H182.787V24.5H180.855V14.7H184.775C185.681 14.7 186.451 15.0173 187.085 15.652C187.72 16.2867 188.037 17.052 188.037 17.948C188.037 18.5547 187.865 19.1193 187.519 19.642C187.174 20.1553 186.717 20.5427 186.147 20.804L188.317 24.5H186.231ZM182.787 16.506V19.404H184.775C185.139 19.404 185.452 19.264 185.713 18.984C185.975 18.6947 186.105 18.3493 186.105 17.948C186.105 17.5467 185.975 17.206 185.713 16.926C185.452 16.646 185.139 16.506 184.775 16.506H182.787ZM194.347 14.7C195.691 14.7 196.811 15.1713 197.707 16.114C198.612 17.0567 199.065 18.2187 199.065 19.6C199.065 20.9813 198.612 22.1433 197.707 23.086C196.811 24.0287 195.691 24.5 194.347 24.5H190.455V14.7H194.347ZM194.347 22.652C195.196 22.652 195.887 22.372 196.419 21.812C196.951 21.2427 197.217 20.5053 197.217 19.6C197.217 18.6947 196.951 17.962 196.419 17.402C195.887 16.8327 195.196 16.548 194.347 16.548H192.387V22.652H194.347Z" fill="#223484"/>
</svg>
