<svg width="81" height="40" viewBox="0 0 81 40" fill="none" xmlns="http://www.w3.org/2000/svg">
<rect width="81" height="40" rx="2" fill="#D6D6D6"/>
<path d="M16.558 25.196C15.0833 25.196 13.8653 24.706 12.904 23.726C11.9427 22.746 11.462 21.5373 11.462 20.1C11.462 18.6533 11.9427 17.4447 12.904 16.474C13.8653 15.494 15.0833 15.004 16.558 15.004C17.4447 15.004 18.2613 15.214 19.008 15.634C19.764 16.0447 20.352 16.6047 20.772 17.314L19.106 18.28C18.8633 17.8413 18.518 17.5007 18.07 17.258C17.622 17.006 17.118 16.88 16.558 16.88C15.606 16.88 14.836 17.1787 14.248 17.776C13.6693 18.3733 13.38 19.148 13.38 20.1C13.38 21.0427 13.6693 21.8127 14.248 22.41C14.836 23.0073 15.606 23.306 16.558 23.306C17.118 23.306 17.622 23.1847 18.07 22.942C18.5273 22.69 18.8727 22.3493 19.106 21.92L20.772 22.886C20.352 23.5953 19.7687 24.16 19.022 24.58C18.2753 24.9907 17.454 25.196 16.558 25.196ZM29.2178 25L28.6298 23.236H24.7238L24.1358 25H22.0498L25.4798 15.2H27.8738L31.3178 25H29.2178ZM25.3398 21.43H28.0278L26.6838 17.426L25.3398 21.43ZM38.9394 15.2H40.8714V25H39.4014L35.2014 19.008V25H33.2694V15.2H34.7394L38.9394 21.178V15.2ZM48.3373 25.196C46.8626 25.196 45.6446 24.706 44.6833 23.726C43.722 22.746 43.2413 21.5373 43.2413 20.1C43.2413 18.6533 43.722 17.4447 44.6833 16.474C45.6446 15.494 46.8626 15.004 48.3373 15.004C49.224 15.004 50.0406 15.214 50.7873 15.634C51.5433 16.0447 52.1313 16.6047 52.5513 17.314L50.8853 18.28C50.6426 17.8413 50.2973 17.5007 49.8493 17.258C49.4013 17.006 48.8973 16.88 48.3373 16.88C47.3853 16.88 46.6153 17.1787 46.0273 17.776C45.4486 18.3733 45.1593 19.148 45.1593 20.1C45.1593 21.0427 45.4486 21.8127 46.0273 22.41C46.6153 23.0073 47.3853 23.306 48.3373 23.306C48.8973 23.306 49.4013 23.1847 49.8493 22.942C50.3066 22.69 50.652 22.3493 50.8853 21.92L52.5513 22.886C52.1313 23.5953 51.548 24.16 50.8013 24.58C50.0546 24.9907 49.2333 25.196 48.3373 25.196ZM56.6701 23.152H60.8001V25H54.7381V15.2H60.7301V17.048H56.6701V19.134H60.3801V20.954H56.6701V23.152ZM65.094 23.152H68.832V25H63.162V15.2H65.094V23.152Z" fill="#8C8C8C"/>
</svg>
