<svg width="280" height="57" viewBox="0 0 280 57" fill="none" xmlns="http://www.w3.org/2000/svg">
<path d="M85.3373 0.422947L85.3409 2.00694L83.0729 2.01201L83.0881 8.82799L81.4321 8.83169L81.4169 2.0157L79.1609 2.02074L79.1573 0.436743L85.3373 0.422947ZM91.8885 8.80834L90.19 5.89613L88.93 5.89894L88.9365 8.81493L87.2805 8.81863L87.2618 0.418651L90.6218 0.41115C91.3978 0.409417 92.0584 0.679943 92.6036 1.22273C93.1488 1.76551 93.4223 2.4209 93.424 3.1889C93.4251 3.7089 93.2782 4.19323 92.9832 4.64189C92.6882 5.08255 92.297 5.41542 91.8095 5.64051L93.6765 8.80435L91.8885 8.80834ZM88.9212 1.96295L88.9268 4.44694L90.6308 4.44314C90.9428 4.44244 91.2105 4.32185 91.434 4.08135C91.6574 3.83285 91.7688 3.5366 91.768 3.1926C91.7672 2.8486 91.6546 2.55685 91.43 2.31735C91.2055 2.07785 90.9372 1.95845 90.6252 1.95915L88.9212 1.96295ZM101.052 8.78789L100.544 7.27702L97.1962 7.28449L96.6956 8.79761L94.9076 8.8016L97.8289 0.395061L99.8809 0.39048L102.852 8.78387L101.052 8.78789ZM97.7208 5.73532L100.025 5.73017L98.8651 2.30075L97.7208 5.73532ZM109.508 0.368987L111.164 0.36529L111.183 8.76527L109.923 8.76808L106.312 3.64013L106.323 8.77612L104.667 8.77982L104.648 0.379836L105.908 0.377024L109.52 5.49297L109.508 0.368987ZM116.481 8.92144C115.649 8.9233 114.948 8.74086 114.38 8.37413C113.811 7.9994 113.41 7.4923 113.176 6.85282L114.59 6.02166C114.92 6.87692 115.565 7.30348 116.525 7.30134C116.989 7.3003 117.329 7.21555 117.545 7.04706C117.76 6.87858 117.868 6.66634 117.867 6.41034C117.867 6.11434 117.734 5.88664 117.47 5.72723C117.205 5.55982 116.733 5.38087 116.053 5.19039C115.676 5.07923 115.356 4.96794 115.092 4.85653C114.836 4.74511 114.575 4.59769 114.311 4.41428C114.054 4.22285 113.858 3.98329 113.721 3.69559C113.585 3.4079 113.516 3.07205 113.515 2.68805C113.513 1.92805 113.78 1.32345 114.315 0.874259C114.858 0.417045 115.509 0.18759 116.269 0.185893C116.949 0.184375 117.546 0.351044 118.058 0.685901C118.579 1.01274 118.984 1.47184 119.274 2.06319L117.883 2.8703C117.546 2.15105 117.009 1.79225 116.273 1.79389C115.929 1.79466 115.657 1.87526 115.457 2.03571C115.266 2.18814 115.17 2.38835 115.171 2.63635C115.171 2.90035 115.28 3.11611 115.496 3.28363C115.721 3.44313 116.145 3.61818 116.769 3.80879C117.026 3.88821 117.218 3.95179 117.346 3.9995C117.482 4.0392 117.662 4.10679 117.886 4.20229C118.119 4.28978 118.295 4.37338 118.415 4.45311C118.543 4.53283 118.687 4.64051 118.848 4.77615C119.008 4.91179 119.128 5.05152 119.209 5.19534C119.297 5.33915 119.369 5.51499 119.426 5.72286C119.49 5.92272 119.523 6.14265 119.523 6.38265C119.525 7.15864 119.242 7.77528 118.675 8.23254C118.116 8.68979 117.385 8.91943 116.481 8.92144ZM121.531 0.342147L123.187 0.33845L123.206 8.73843L121.55 8.74213L121.531 0.342147ZM131.298 0.320343L131.302 1.90434L129.034 1.9094L129.049 8.72539L127.393 8.72908L127.378 1.9131L125.122 1.91814L125.118 0.33414L131.298 0.320343ZM133.223 0.316047L134.879 0.31235L134.897 8.71233L133.241 8.71603L133.223 0.316047ZM144.518 7.59885C143.672 8.44074 142.641 8.86304 141.425 8.86576C140.209 8.86847 139.176 8.45078 138.326 7.61267C137.484 6.76655 137.062 5.73149 137.059 4.50749C137.056 3.2835 137.474 2.25056 138.312 1.40869C139.158 0.558797 140.189 0.132495 141.405 0.12978C142.621 0.127065 143.654 0.548761 144.504 1.39487C145.354 2.23297 145.78 3.26402 145.783 4.48802C145.786 5.71202 145.364 6.74896 144.518 7.59885ZM139.487 6.48208C140.008 6.99292 140.653 7.24748 141.421 7.24576C142.189 7.24405 142.832 6.98661 143.351 6.47345C143.87 5.95229 144.129 5.29171 144.127 4.49172C144.125 3.69172 143.864 3.0323 143.342 2.51346C142.821 1.99462 142.177 1.73606 141.409 1.73778C140.641 1.73949 139.997 2.00093 139.478 2.52209C138.96 3.04325 138.701 3.70383 138.703 4.50382C138.705 5.30382 138.966 5.96324 139.487 6.48208ZM152.797 0.272348L154.453 0.268651L154.472 8.66863L153.212 8.67144L149.601 3.54349L149.612 8.67948L147.956 8.68318L147.937 0.283198L149.197 0.280385L152.809 5.39634L152.797 0.272348ZM163.899 8.81559C163.067 8.81744 162.366 8.63501 161.797 8.26828C161.229 7.89355 160.828 7.38644 160.594 6.74696L162.008 5.9158C162.338 6.77107 162.983 7.19763 163.943 7.19548C164.407 7.19445 164.747 7.10969 164.963 6.94121C165.178 6.77273 165.286 6.56049 165.285 6.30449C165.284 6.00849 165.152 5.78078 164.888 5.62137C164.623 5.45396 164.151 5.27502 163.47 5.08453C163.094 4.97337 162.774 4.86209 162.51 4.75068C162.253 4.63925 161.993 4.49183 161.729 4.30842C161.472 4.11699 161.276 3.87743 161.139 3.58973C161.002 3.30204 160.934 2.96619 160.933 2.58219C160.931 1.82219 161.198 1.2176 161.733 0.768403C162.276 0.311189 162.927 0.081734 163.687 0.0800373C164.367 0.0785193 164.964 0.245188 165.476 0.580044C165.997 0.906883 166.402 1.36598 166.691 1.95734L165.301 2.76444C164.964 2.04519 164.427 1.68639 163.691 1.68803C163.347 1.6888 163.075 1.76941 162.875 1.92985C162.684 2.08228 162.588 2.2825 162.589 2.5305C162.589 2.7945 162.698 3.01025 162.914 3.17777C163.138 3.33727 163.563 3.51232 164.187 3.70293C164.443 3.78236 164.636 3.84593 164.764 3.89364C164.9 3.93334 165.08 4.00094 165.304 4.09644C165.536 4.18392 165.713 4.26753 165.833 4.34726C165.961 4.42697 166.105 4.53465 166.265 4.67029C166.426 4.80594 166.546 4.94567 166.626 5.08949C166.715 5.23329 166.787 5.40913 166.844 5.61701C166.908 5.81686 166.941 6.03679 166.941 6.27679C166.943 7.05279 166.66 7.66942 166.093 8.12669C165.534 8.58394 164.803 8.81357 163.899 8.81559ZM172.952 8.79538C171.688 8.7982 170.643 8.38053 169.817 7.54237C168.992 6.70421 168.577 5.66914 168.574 4.43714C168.572 3.19714 168.981 2.16022 169.804 1.32639C170.626 0.484549 171.669 0.0622194 172.933 0.0593977C173.693 0.057701 174.393 0.236138 175.034 0.594708C175.683 0.945261 176.188 1.42413 176.549 2.03133L175.123 2.86252C174.914 2.48698 174.617 2.19564 174.233 1.9885C173.849 1.77336 173.416 1.66632 172.936 1.66739C172.12 1.66922 171.461 1.92669 170.958 2.43981C170.463 2.95292 170.217 3.61747 170.218 4.43347C170.22 5.24147 170.47 5.90091 170.967 6.4118C171.472 6.92268 172.133 7.1772 172.949 7.17538C173.429 7.17431 173.86 7.06934 174.244 6.86049C174.635 6.64361 174.931 6.35095 175.13 5.98251L176.56 6.80732C176.201 7.41612 175.702 7.90123 175.063 8.26266C174.424 8.61609 173.72 8.79366 172.952 8.79538ZM183.946 8.60283L183.439 7.09196L180.091 7.09944L179.59 8.61256L177.802 8.61655L180.723 0.210007L182.775 0.205426L185.746 8.59882L183.946 8.60283ZM180.615 5.55026L182.919 5.54512L181.759 2.1157L180.615 5.55026ZM189.214 7.00707L192.418 6.99992L192.422 8.58391L187.562 8.59476L187.543 0.194782L189.199 0.191086L189.214 7.00707ZM196.015 6.99189L199.555 6.98398L199.558 8.56798L194.362 8.57958L194.344 0.1796L199.48 0.168135L199.483 1.75213L196.003 1.7599L196.007 3.5479L199.187 3.5408L199.191 5.10079L196.011 5.10789L196.015 6.99189Z" fill="#272727"/>
<rect y="37.0637" width="221.4" height="4" rx="2" fill="#E7E7E8"/>
<path d="M4.51477 48.7637H5.59477V55.0637H4.35277V50.0777L3.16477 50.4107L2.85877 49.3487L4.51477 48.7637Z" fill="#A6D0F4"/>
<path d="M24.4524 55.0637V54.1367L26.6034 51.9227C27.0834 51.4187 27.3234 50.9987 27.3234 50.6627C27.3234 50.4167 27.2454 50.2187 27.0894 50.0687C26.9394 49.9187 26.7444 49.8437 26.5044 49.8437C26.0304 49.8437 25.6794 50.0897 25.4514 50.5817L24.4074 49.9697C24.6054 49.5377 24.8904 49.2077 25.2624 48.9797C25.6344 48.7517 26.0424 48.6377 26.4864 48.6377C27.0564 48.6377 27.5454 48.8177 27.9534 49.1777C28.3614 49.5317 28.5654 50.0117 28.5654 50.6177C28.5654 51.2717 28.2204 51.9437 27.5304 52.6337L26.2974 53.8667H28.6644V55.0637H24.4524Z" fill="#A6D0F4"/>
<path d="M50.9248 51.3197C51.3508 51.4457 51.6958 51.6677 51.9598 51.9857C52.2298 52.2977 52.3648 52.6757 52.3648 53.1197C52.3648 53.7677 52.1458 54.2747 51.7078 54.6407C51.2758 55.0067 50.7448 55.1897 50.1148 55.1897C49.6228 55.1897 49.1818 55.0787 48.7918 54.8567C48.4078 54.6287 48.1288 54.2957 47.9548 53.8577L49.0168 53.2457C49.1728 53.7317 49.5388 53.9747 50.1148 53.9747C50.4328 53.9747 50.6788 53.8997 50.8528 53.7497C51.0328 53.5937 51.1228 53.3837 51.1228 53.1197C51.1228 52.8617 51.0328 52.6547 50.8528 52.4987C50.6788 52.3427 50.4328 52.2647 50.1148 52.2647H49.8448L49.3678 51.5447L50.6098 49.9247H48.1438V48.7637H52.1038V49.7897L50.9248 51.3197Z" fill="#A6D0F4"/>
<path d="M76.2837 52.8407V53.9927H75.6087V55.0637H74.3577V53.9927H71.3787V52.8407L73.4757 48.7637H74.8077L72.7197 52.8407H74.3577V51.3467H75.6087V52.8407H76.2837Z" fill="#A6D0F4"/>
<path d="M97.4547 51.0587C98.0607 51.0587 98.5707 51.2417 98.9847 51.6077C99.3987 51.9677 99.6057 52.4717 99.6057 53.1197C99.6057 53.7677 99.3867 54.2747 98.9487 54.6407C98.5167 55.0067 97.9857 55.1897 97.3557 55.1897C96.8457 55.1897 96.3957 55.0757 96.0057 54.8477C95.6157 54.6197 95.3337 54.2837 95.1597 53.8397L96.2217 53.2187C96.3777 53.7227 96.7557 53.9747 97.3557 53.9747C97.6737 53.9747 97.9197 53.8997 98.0937 53.7497C98.2737 53.5937 98.3637 53.3837 98.3637 53.1197C98.3637 52.8617 98.2767 52.6547 98.1027 52.4987C97.9287 52.3427 97.6917 52.2647 97.3917 52.2647H95.4837L95.7357 48.7637H99.3087V49.9247H96.8877L96.8067 51.0587H97.4547Z" fill="#A6D0F4"/>
<path d="M121.078 50.8067C121.732 50.8247 122.263 51.0377 122.671 51.4457C123.079 51.8477 123.283 52.3637 123.283 52.9937C123.283 53.6357 123.07 54.1637 122.644 54.5777C122.218 54.9857 121.669 55.1897 120.997 55.1897C120.325 55.1897 119.776 54.9857 119.35 54.5777C118.93 54.1697 118.72 53.6417 118.72 52.9937C118.72 52.5137 118.843 52.0907 119.089 51.7247L121.051 48.7637H122.473L121.078 50.8067ZM120.25 53.7407C120.448 53.9267 120.697 54.0197 120.997 54.0197C121.297 54.0197 121.546 53.9267 121.744 53.7407C121.948 53.5547 122.05 53.3057 122.05 52.9937C122.05 52.6877 121.948 52.4417 121.744 52.2557C121.546 52.0697 121.297 51.9767 120.997 51.9767C120.697 51.9767 120.448 52.0697 120.25 52.2557C120.052 52.4357 119.953 52.6817 119.953 52.9937C119.953 53.3057 120.052 53.5547 120.25 53.7407Z" fill="#A6D0F4"/>
<path d="M142.511 48.7637H146.579V49.8167L144.446 55.0637H143.132L145.202 49.9517H142.511V48.7637Z" fill="#A6D0F4"/>
<path d="M169.584 51.7877C170.166 52.1357 170.457 52.6427 170.457 53.3087C170.457 53.8907 170.253 54.3497 169.845 54.6857C169.443 55.0217 168.894 55.1897 168.198 55.1897C167.496 55.1897 166.944 55.0217 166.542 54.6857C166.14 54.3497 165.939 53.8907 165.939 53.3087C165.939 52.6427 166.227 52.1357 166.803 51.7877C166.365 51.4697 166.146 51.0347 166.146 50.4827C166.146 49.9007 166.341 49.4477 166.731 49.1237C167.127 48.7997 167.616 48.6377 168.198 48.6377C168.78 48.6377 169.266 48.7997 169.656 49.1237C170.046 49.4477 170.241 49.9007 170.241 50.4827C170.241 51.0407 170.022 51.4757 169.584 51.7877ZM168.783 50.0057C168.633 49.8737 168.438 49.8077 168.198 49.8077C167.958 49.8077 167.763 49.8737 167.613 50.0057C167.463 50.1377 167.388 50.3177 167.388 50.5457C167.388 50.7737 167.463 50.9567 167.613 51.0947C167.763 51.2267 167.958 51.2927 168.198 51.2927C168.438 51.2927 168.633 51.2267 168.783 51.0947C168.933 50.9567 169.008 50.7737 169.008 50.5457C169.008 50.3177 168.933 50.1377 168.783 50.0057ZM167.451 53.7947C167.643 53.9447 167.892 54.0197 168.198 54.0197C168.504 54.0197 168.75 53.9447 168.936 53.7947C169.128 53.6387 169.224 53.4227 169.224 53.1467C169.224 52.8767 169.128 52.6667 168.936 52.5167C168.75 52.3607 168.504 52.2827 168.198 52.2827C167.892 52.2827 167.643 52.3607 167.451 52.5167C167.265 52.6667 167.172 52.8767 167.172 53.1467C167.172 53.4227 167.265 53.6387 167.451 53.7947Z" fill="#A6D0F4"/>
<path d="M194.083 50.8247C194.083 51.3107 193.957 51.7367 193.705 52.1027H193.714L191.752 55.0637H190.33L191.734 53.0117C191.08 52.9997 190.546 52.7927 190.132 52.3907C189.724 51.9827 189.52 51.4607 189.52 50.8247C189.52 50.1827 189.73 49.6577 190.15 49.2497C190.576 48.8417 191.125 48.6377 191.797 48.6377C192.475 48.6377 193.024 48.8417 193.444 49.2497C193.87 49.6517 194.083 50.1767 194.083 50.8247ZM190.753 50.8247C190.753 51.1367 190.852 51.3857 191.05 51.5717C191.254 51.7577 191.503 51.8507 191.797 51.8507C192.103 51.8507 192.355 51.7577 192.553 51.5717C192.751 51.3857 192.85 51.1367 192.85 50.8247C192.85 50.5127 192.751 50.2667 192.553 50.0867C192.355 49.9007 192.103 49.8077 191.797 49.8077C191.503 49.8077 191.254 49.9007 191.05 50.0867C190.852 50.2727 190.753 50.5187 190.753 50.8247Z" fill="#A6D0F4"/>
<path d="M212.58 48.7637H213.66V55.0637H212.418V50.0777L211.23 50.4107L210.924 49.3487L212.58 48.7637ZM217.141 55.1897C216.355 55.1897 215.737 54.8927 215.287 54.2987C214.843 53.6987 214.621 52.9037 214.621 51.9137C214.621 50.9237 214.843 50.1317 215.287 49.5377C215.737 48.9377 216.355 48.6377 217.141 48.6377C217.933 48.6377 218.551 48.9377 218.995 49.5377C219.439 50.1317 219.661 50.9237 219.661 51.9137C219.661 52.9037 219.439 53.6987 218.995 54.2987C218.551 54.8927 217.933 55.1897 217.141 55.1897ZM216.187 53.4527C216.403 53.8007 216.721 53.9747 217.141 53.9747C217.561 53.9747 217.879 53.7977 218.095 53.4437C218.317 53.0897 218.428 52.5797 218.428 51.9137C218.428 51.2417 218.317 50.7287 218.095 50.3747C217.879 50.0207 217.561 49.8437 217.141 49.8437C216.721 49.8437 216.403 50.0207 216.187 50.3747C215.971 50.7287 215.863 51.2417 215.863 51.9137C215.863 52.5857 215.971 53.0987 216.187 53.4527Z" fill="#A6D0F4"/>
<path d="M0 39.0637C0 37.9591 0.895431 37.0637 2 37.0637H54C55.1046 37.0637 56 37.9591 56 39.0637C56 40.1682 55.1046 41.0637 54 41.0637H2C0.89543 41.0637 0 40.1682 0 39.0637Z" fill="#2196F3"/>
<path d="M49.5 33.0637C52.8113 33.0637 55.5 35.7524 55.5 39.0637C55.5 42.3749 52.8113 45.0637 49.5 45.0637C46.1887 45.0637 43.5 42.3749 43.5 39.0637C43.5 35.7524 46.1887 33.0637 49.5 33.0637Z" fill="#2196F3" stroke="white"/>
<rect x="235.5" y="25.5637" width="40" height="30" rx="3.5" stroke="#82C4F8"/>
<path d="M255.942 39.3393C256.605 39.5353 257.141 39.8806 257.552 40.3753C257.972 40.8606 258.182 41.4486 258.182 42.1393C258.182 43.1473 257.841 43.9359 257.16 44.5053C256.488 45.0746 255.662 45.3593 254.682 45.3593C253.917 45.3593 253.231 45.1866 252.624 44.8413C252.027 44.4866 251.593 43.9686 251.322 43.2873L252.974 42.3353C253.217 43.0913 253.786 43.4693 254.682 43.4693C255.177 43.4693 255.559 43.3526 255.83 43.1193C256.11 42.8766 256.25 42.5499 256.25 42.1393C256.25 41.7379 256.11 41.4159 255.83 41.1733C255.559 40.9306 255.177 40.8093 254.682 40.8093H254.262L253.52 39.6893L255.452 37.1693H251.616V35.3633H257.776V36.9593L255.942 39.3393Z" fill="#2C2929"/>
</svg>
