<svg width="123" height="44" viewBox="0 0 123 44" fill="none" xmlns="http://www.w3.org/2000/svg">
<rect x="0.5" y="0.5" width="122" height="43" rx="0.5" stroke="#2196F3"/>
<circle cx="19" cy="22" r="7.5" fill="white" stroke="#223484"/>
<path d="M44.156 25.726C43.1667 26.706 41.9627 27.196 40.544 27.196C39.1253 27.196 37.9213 26.706 36.932 25.726C35.952 24.7367 35.462 23.528 35.462 22.1C35.462 20.672 35.952 19.468 36.932 18.488C37.9213 17.4987 39.1253 17.004 40.544 17.004C41.9627 17.004 43.1667 17.4987 44.156 18.488C45.1453 19.468 45.64 20.672 45.64 22.1C45.64 23.528 45.1453 24.7367 44.156 25.726ZM38.29 24.41C38.8967 25.0073 39.648 25.306 40.544 25.306C41.44 25.306 42.1913 25.0073 42.798 24.41C43.4047 23.8033 43.708 23.0333 43.708 22.1C43.708 21.1667 43.4047 20.3967 42.798 19.79C42.1913 19.1833 41.44 18.88 40.544 18.88C39.648 18.88 38.8967 19.1833 38.29 19.79C37.6833 20.3967 37.38 21.1667 37.38 22.1C37.38 23.0333 37.6833 23.8033 38.29 24.41ZM51.6519 17.2C52.5946 17.2 53.3879 17.5173 54.0319 18.152C54.6759 18.7867 54.9979 19.566 54.9979 20.49C54.9979 21.414 54.6759 22.1933 54.0319 22.828C53.3879 23.4627 52.5946 23.78 51.6519 23.78H49.9299V27H47.9979V17.2H51.6519ZM51.6519 21.974C52.0626 21.974 52.4032 21.834 52.6739 21.554C52.9446 21.2647 53.0799 20.91 53.0799 20.49C53.0799 20.0607 52.9446 19.706 52.6739 19.426C52.4032 19.146 52.0626 19.006 51.6519 19.006H49.9299V21.974H51.6519ZM63.56 17.2V19.048H60.914V27H58.982V19.048H56.35V17.2H63.56ZM65.6385 17.2H67.5705V27H65.6385V17.2ZM79.9746 17.2V27H78.0566V20.644L75.2986 25.194H75.0746L72.3166 20.658V27H70.3846V17.2H72.3726L75.1866 21.834L77.9866 17.2H79.9746ZM89.1006 27L88.5126 25.236H84.6066L84.0186 27H81.9326L85.3626 17.2H87.7566L91.2006 27H89.1006ZM85.2226 23.43H87.9106L86.5666 19.426L85.2226 23.43ZM95.0842 25.152H98.8222V27H93.1522V17.2H95.0842V25.152Z" fill="#223484" fill-opacity="0.5"/>
</svg>
