<svg width="212" height="845" viewBox="0 0 212 845" fill="none" xmlns="http://www.w3.org/2000/svg">
<path d="M0 0H209V841C209 843.209 207.209 845 205 845H4C1.79086 845 0 843.209 0 841V0Z" fill="white"/>
<rect x="15" y="10" width="181" height="35" rx="2" fill="#223484"/>
<path d="M54.1155 29.281C54.9128 29.7403 55.3115 30.4337 55.3115 31.361C55.3115 32.1323 55.0385 32.765 54.4925 33.259C53.9465 33.753 53.2748 34 52.4775 34H48.6165V24.9H52.2045C52.9845 24.9 53.6388 25.1427 54.1675 25.628C54.7048 26.1047 54.9735 26.7157 54.9735 27.461C54.9735 28.215 54.6875 28.8217 54.1155 29.281ZM52.2045 26.577H50.4105V28.579H52.2045C52.4818 28.579 52.7115 28.4837 52.8935 28.293C53.0842 28.1023 53.1795 27.864 53.1795 27.578C53.1795 27.292 53.0885 27.0537 52.9065 26.863C52.7245 26.6723 52.4905 26.577 52.2045 26.577ZM52.4775 32.323C52.7808 32.323 53.0322 32.2233 53.2315 32.024C53.4308 31.816 53.5305 31.556 53.5305 31.244C53.5305 30.9407 53.4308 30.6893 53.2315 30.49C53.0322 30.282 52.7808 30.178 52.4775 30.178H50.4105V32.323H52.4775ZM63.3376 34L62.7916 32.362H59.1646L58.6186 34H56.6816L59.8666 24.9H62.0896L65.2876 34H63.3376ZM59.7366 30.685H62.2326L60.9846 26.967L59.7366 30.685ZM70.075 34.182C69.1737 34.182 68.4154 33.9827 67.8 33.584C67.1847 33.1767 66.7514 32.6263 66.5 31.933L68.034 31.036C68.3894 31.9633 69.087 32.427 70.127 32.427C70.6297 32.427 70.998 32.336 71.232 32.154C71.466 31.972 71.583 31.7423 71.583 31.465C71.583 31.1443 71.44 30.8973 71.154 30.724C70.868 30.542 70.3567 30.347 69.62 30.139C69.2127 30.0177 68.866 29.8963 68.58 29.775C68.3027 29.6537 68.021 29.4933 67.735 29.294C67.4577 29.086 67.2454 28.826 67.098 28.514C66.9507 28.202 66.877 27.838 66.877 27.422C66.877 26.5987 67.1674 25.9443 67.748 25.459C68.3374 24.965 69.0437 24.718 69.867 24.718C70.6037 24.718 71.2494 24.9 71.804 25.264C72.3674 25.6193 72.805 26.1177 73.117 26.759L71.609 27.63C71.245 26.85 70.6644 26.46 69.867 26.46C69.4944 26.46 69.1997 26.5467 68.983 26.72C68.775 26.8847 68.671 27.1013 68.671 27.37C68.671 27.656 68.788 27.89 69.022 28.072C69.2647 28.2453 69.724 28.436 70.4 28.644C70.6774 28.7307 70.8854 28.8 71.024 28.852C71.1714 28.8953 71.3664 28.969 71.609 29.073C71.8604 29.1683 72.051 29.2593 72.181 29.346C72.3197 29.4327 72.4757 29.5497 72.649 29.697C72.8224 29.8443 72.9524 29.996 73.039 30.152C73.1344 30.308 73.2124 30.4987 73.273 30.724C73.3424 30.9407 73.377 31.179 73.377 31.439C73.377 32.2797 73.0694 32.947 72.454 33.441C71.8474 33.935 71.0544 34.182 70.075 34.182ZM77.2777 32.284H81.1127V34H75.4837V24.9H81.0477V26.616H77.2777V28.553H80.7227V30.243H77.2777V32.284ZM89.4212 32.284H92.8922V34H87.6272V24.9H89.4212V32.284ZM94.9114 24.9H96.7054V34H94.9114V24.9ZM104.655 24.9H106.449V34H105.084L101.184 28.436V34H99.3899V24.9H100.755L104.655 30.451V24.9ZM110.931 32.284H114.766V34H109.137V24.9H114.701V26.616H110.931V28.553H114.376V30.243H110.931V32.284Z" fill="white"/>
<g clip-path="url(#clip0_4_911)">
<path d="M34.6484 26.6484L35.3516 27.3516L29.5 33.2031L26.6484 30.3516L27.3516 29.6484L29.5 31.7969L34.6484 26.6484ZM31 22C31.7344 22 32.4427 22.0938 33.125 22.2812C33.8073 22.4688 34.4453 22.737 35.0391 23.0859C35.6328 23.4349 36.1719 23.8516 36.6562 24.3359C37.1406 24.8203 37.5573 25.362 37.9062 25.9609C38.2552 26.5599 38.5234 27.1979 38.7109 27.875C38.8984 28.5521 38.9948 29.2604 39 30C39 30.7344 38.9062 31.4427 38.7188 32.125C38.5312 32.8073 38.263 33.4453 37.9141 34.0391C37.5651 34.6328 37.1484 35.1719 36.6641 35.6562C36.1797 36.1406 35.638 36.5573 35.0391 36.9062C34.4401 37.2552 33.8021 37.5234 33.125 37.7109C32.4479 37.8984 31.7396 37.9948 31 38C30.2656 38 29.5573 37.9062 28.875 37.7188C28.1927 37.5312 27.5547 37.263 26.9609 36.9141C26.3672 36.5651 25.8281 36.1484 25.3438 35.6641C24.8594 35.1797 24.4427 34.638 24.0938 34.0391C23.7448 33.4401 23.4766 32.8047 23.2891 32.1328C23.1016 31.4609 23.0052 30.75 23 30C23 29.2656 23.0938 28.5573 23.2812 27.875C23.4688 27.1927 23.737 26.5547 24.0859 25.9609C24.4349 25.3672 24.8516 24.8281 25.3359 24.3438C25.8203 23.8594 26.362 23.4427 26.9609 23.0938C27.5599 22.7448 28.1953 22.4766 28.8672 22.2891C29.5391 22.1016 30.25 22.0052 31 22ZM31 37C31.6406 37 32.2578 36.9167 32.8516 36.75C33.4453 36.5833 34.0026 36.349 34.5234 36.0469C35.0443 35.7448 35.5182 35.3776 35.9453 34.9453C36.3724 34.513 36.737 34.0417 37.0391 33.5312C37.3411 33.0208 37.5781 32.4635 37.75 31.8594C37.9219 31.2552 38.0052 30.6354 38 30C38 29.3594 37.9167 28.7422 37.75 28.1484C37.5833 27.5547 37.349 26.9974 37.0469 26.4766C36.7448 25.9557 36.3776 25.4818 35.9453 25.0547C35.513 24.6276 35.0417 24.263 34.5312 23.9609C34.0208 23.6589 33.4635 23.4219 32.8594 23.25C32.2552 23.0781 31.6354 22.9948 31 23C30.3594 23 29.7422 23.0833 29.1484 23.25C28.5547 23.4167 27.9974 23.651 27.4766 23.9531C26.9557 24.2552 26.4818 24.6224 26.0547 25.0547C25.6276 25.487 25.263 25.9583 24.9609 26.4688C24.6589 26.9792 24.4219 27.5365 24.25 28.1406C24.0781 28.7448 23.9948 29.3646 24 30C24 30.6406 24.0833 31.2578 24.25 31.8516C24.4167 32.4453 24.651 33.0026 24.9531 33.5234C25.2552 34.0443 25.6224 34.5182 26.0547 34.9453C26.487 35.3724 26.9583 35.737 27.4688 36.0391C27.9792 36.3411 28.5365 36.5781 29.1406 36.75C29.7448 36.9219 30.3646 37.0052 31 37Z" fill="white"/>
</g>
<rect x="15" y="62" width="185" height="37" rx="2" fill="#223484"/>
<path d="M51.0275 88.196C50.0568 88.196 49.2402 87.9813 48.5775 87.552C47.9148 87.1133 47.4482 86.5207 47.1775 85.774L48.8295 84.808C49.2122 85.8067 49.9635 86.306 51.0835 86.306C51.6248 86.306 52.0215 86.208 52.2735 86.012C52.5255 85.816 52.6515 85.5687 52.6515 85.27C52.6515 84.9247 52.4975 84.6587 52.1895 84.472C51.8815 84.276 51.3308 84.066 50.5375 83.842C50.0988 83.7113 49.7255 83.5807 49.4175 83.45C49.1188 83.3193 48.8155 83.1467 48.5075 82.932C48.2088 82.708 47.9802 82.428 47.8215 82.092C47.6628 81.756 47.5835 81.364 47.5835 80.916C47.5835 80.0293 47.8962 79.3247 48.5215 78.802C49.1562 78.27 49.9168 78.004 50.8035 78.004C51.5968 78.004 52.2922 78.2 52.8895 78.592C53.4962 78.9747 53.9675 79.5113 54.3035 80.202L52.6795 81.14C52.2875 80.3 51.6622 79.88 50.8035 79.88C50.4022 79.88 50.0848 79.9733 49.8515 80.16C49.6275 80.3373 49.5155 80.5707 49.5155 80.86C49.5155 81.168 49.6415 81.42 49.8935 81.616C50.1548 81.8027 50.6495 82.008 51.3775 82.232C51.6762 82.3253 51.9002 82.4 52.0495 82.456C52.2082 82.5027 52.4182 82.582 52.6795 82.694C52.9502 82.7967 53.1555 82.8947 53.2955 82.988C53.4448 83.0813 53.6128 83.2073 53.7995 83.366C53.9862 83.5247 54.1262 83.688 54.2195 83.856C54.3222 84.024 54.4062 84.2293 54.4715 84.472C54.5462 84.7053 54.5835 84.962 54.5835 85.242C54.5835 86.1473 54.2522 86.866 53.5895 87.398C52.9362 87.93 52.0822 88.196 51.0275 88.196ZM61.4232 88.196C59.9486 88.196 58.7306 87.706 57.7692 86.726C56.8079 85.746 56.3272 84.5373 56.3272 83.1C56.3272 81.6533 56.8079 80.4447 57.7692 79.474C58.7306 78.494 59.9486 78.004 61.4232 78.004C62.3099 78.004 63.1266 78.214 63.8732 78.634C64.6292 79.0447 65.2172 79.6047 65.6372 80.314L63.9712 81.28C63.7286 80.8413 63.3832 80.5007 62.9352 80.258C62.4872 80.006 61.9832 79.88 61.4232 79.88C60.4712 79.88 59.7012 80.1787 59.1132 80.776C58.5346 81.3733 58.2452 82.148 58.2452 83.1C58.2452 84.0427 58.5346 84.8127 59.1132 85.41C59.7012 86.0073 60.4712 86.306 61.4232 86.306C61.9832 86.306 62.4872 86.1847 62.9352 85.942C63.3926 85.69 63.7379 85.3493 63.9712 84.92L65.6372 85.886C65.2172 86.5953 64.6339 87.16 63.8872 87.58C63.1406 87.9907 62.3192 88.196 61.4232 88.196ZM73.3961 78.2H75.3141V88H73.3961V83.94H69.7561V88H67.8241V78.2H69.7561V82.092H73.3961V78.2ZM80.0666 86.152H84.1966V88H78.1346V78.2H84.1266V80.048H80.0666V82.134H83.7766V83.954H80.0666V86.152ZM90.4504 78.2C91.7944 78.2 92.9144 78.6713 93.8104 79.614C94.7158 80.5567 95.1684 81.7187 95.1684 83.1C95.1684 84.4813 94.7158 85.6433 93.8104 86.586C92.9144 87.5287 91.7944 88 90.4504 88H86.5584V78.2H90.4504ZM90.4504 86.152C91.2998 86.152 91.9904 85.872 92.5224 85.312C93.0544 84.7427 93.3204 84.0053 93.3204 83.1C93.3204 82.1947 93.0544 81.462 92.5224 80.902C91.9904 80.3327 91.2998 80.048 90.4504 80.048H88.4904V86.152H90.4504ZM101.125 88.196C100.033 88.196 99.1365 87.888 98.4365 87.272C97.7365 86.656 97.3865 85.83 97.3865 84.794V78.2H99.3045V84.64C99.3045 85.1533 99.4492 85.5593 99.7385 85.858C100.037 86.1567 100.499 86.306 101.125 86.306C101.75 86.306 102.207 86.1567 102.497 85.858C102.795 85.5593 102.945 85.1533 102.945 84.64V78.2H104.877V84.794C104.877 85.83 104.527 86.656 103.827 87.272C103.127 87.888 102.226 88.196 101.125 88.196ZM109.549 86.152H113.287V88H107.617V78.2H109.549V86.152ZM117.317 86.152H121.447V88H115.385V78.2H121.377V80.048H117.317V82.134H121.027V83.954H117.317V86.152ZM134.79 78.2V80.048H132.144V88H130.212V80.048H127.58V78.2H134.79ZM144.625 78.2L141.265 84.178V88H139.347V84.178L136.001 78.2H138.185L140.313 82.288L142.441 78.2H144.625ZM150.218 78.2C151.161 78.2 151.954 78.5173 152.598 79.152C153.242 79.7867 153.564 80.566 153.564 81.49C153.564 82.414 153.242 83.1933 152.598 83.828C151.954 84.4627 151.161 84.78 150.218 84.78H148.496V88H146.564V78.2H150.218ZM150.218 82.974C150.629 82.974 150.97 82.834 151.24 82.554C151.511 82.2647 151.646 81.91 151.646 81.49C151.646 81.0607 151.511 80.706 151.24 80.426C150.97 80.146 150.629 80.006 150.218 80.006H148.496V82.974H150.218ZM157.754 86.152H161.884V88H155.822V78.2H161.814V80.048H157.754V82.134H161.464V83.954H157.754V86.152Z" fill="white"/>
<g clip-path="url(#clip1_4_911)">
<path d="M34.6484 79.6484L35.3516 80.3516L29.5 86.2031L26.6484 83.3516L27.3516 82.6484L29.5 84.7969L34.6484 79.6484ZM31 75C31.7344 75 32.4427 75.0938 33.125 75.2812C33.8073 75.4688 34.4453 75.737 35.0391 76.0859C35.6328 76.4349 36.1719 76.8516 36.6562 77.3359C37.1406 77.8203 37.5573 78.362 37.9062 78.9609C38.2552 79.5599 38.5234 80.1979 38.7109 80.875C38.8984 81.5521 38.9948 82.2604 39 83C39 83.7344 38.9062 84.4427 38.7188 85.125C38.5312 85.8073 38.263 86.4453 37.9141 87.0391C37.5651 87.6328 37.1484 88.1719 36.6641 88.6562C36.1797 89.1406 35.638 89.5573 35.0391 89.9062C34.4401 90.2552 33.8021 90.5234 33.125 90.7109C32.4479 90.8984 31.7396 90.9948 31 91C30.2656 91 29.5573 90.9062 28.875 90.7188C28.1927 90.5312 27.5547 90.263 26.9609 89.9141C26.3672 89.5651 25.8281 89.1484 25.3438 88.6641C24.8594 88.1797 24.4427 87.638 24.0938 87.0391C23.7448 86.4401 23.4766 85.8047 23.2891 85.1328C23.1016 84.4609 23.0052 83.75 23 83C23 82.2656 23.0938 81.5573 23.2812 80.875C23.4688 80.1927 23.737 79.5547 24.0859 78.9609C24.4349 78.3672 24.8516 77.8281 25.3359 77.3438C25.8203 76.8594 26.362 76.4427 26.9609 76.0938C27.5599 75.7448 28.1953 75.4766 28.8672 75.2891C29.5391 75.1016 30.25 75.0052 31 75ZM31 90C31.6406 90 32.2578 89.9167 32.8516 89.75C33.4453 89.5833 34.0026 89.349 34.5234 89.0469C35.0443 88.7448 35.5182 88.3776 35.9453 87.9453C36.3724 87.513 36.737 87.0417 37.0391 86.5312C37.3411 86.0208 37.5781 85.4635 37.75 84.8594C37.9219 84.2552 38.0052 83.6354 38 83C38 82.3594 37.9167 81.7422 37.75 81.1484C37.5833 80.5547 37.349 79.9974 37.0469 79.4766C36.7448 78.9557 36.3776 78.4818 35.9453 78.0547C35.513 77.6276 35.0417 77.263 34.5312 76.9609C34.0208 76.6589 33.4635 76.4219 32.8594 76.25C32.2552 76.0781 31.6354 75.9948 31 76C30.3594 76 29.7422 76.0833 29.1484 76.25C28.5547 76.4167 27.9974 76.651 27.4766 76.9531C26.9557 77.2552 26.4818 77.6224 26.0547 78.0547C25.6276 78.487 25.263 78.9583 24.9609 79.4688C24.6589 79.9792 24.4219 80.5365 24.25 81.1406C24.0781 81.7448 23.9948 82.3646 24 83C24 83.6406 24.0833 84.2578 24.25 84.8516C24.4167 85.4453 24.651 86.0026 24.9531 86.5234C25.2552 87.0443 25.6224 87.5182 26.0547 87.9453C26.487 88.3724 26.9583 88.737 27.4688 89.0391C27.9792 89.3411 28.5365 89.5781 29.1406 89.75C29.7448 89.9219 30.3646 90.0052 31 90Z" fill="white"/>
</g>
<rect x="13.6143" y="115" width="182.771" height="42" rx="2" fill="#223484"/>
<path d="M50.1877 131.2C51.5317 131.2 52.6517 131.671 53.5477 132.614C54.4531 133.557 54.9057 134.719 54.9057 136.1C54.9057 137.481 54.4531 138.643 53.5477 139.586C52.6517 140.529 51.5317 141 50.1877 141H46.2957V131.2H50.1877ZM50.1877 139.152C51.0371 139.152 51.7277 138.872 52.2597 138.312C52.7917 137.743 53.0577 137.005 53.0577 136.1C53.0577 135.195 52.7917 134.462 52.2597 133.902C51.7277 133.333 51.0371 133.048 50.1877 133.048H48.2277V139.152H50.1877ZM57.2762 131.2H59.2082V141H57.2762V131.2ZM65.2179 141.196C64.2472 141.196 63.4306 140.981 62.7679 140.552C62.1052 140.113 61.6386 139.521 61.3679 138.774L63.0199 137.808C63.4026 138.807 64.1539 139.306 65.2739 139.306C65.8152 139.306 66.2119 139.208 66.4639 139.012C66.7159 138.816 66.8419 138.569 66.8419 138.27C66.8419 137.925 66.6879 137.659 66.3799 137.472C66.0719 137.276 65.5212 137.066 64.7279 136.842C64.2892 136.711 63.9159 136.581 63.6079 136.45C63.3092 136.319 63.0059 136.147 62.6979 135.932C62.3992 135.708 62.1706 135.428 62.0119 135.092C61.8532 134.756 61.7739 134.364 61.7739 133.916C61.7739 133.029 62.0866 132.325 62.7119 131.802C63.3466 131.27 64.1072 131.004 64.9939 131.004C65.7872 131.004 66.4826 131.2 67.0799 131.592C67.6866 131.975 68.1579 132.511 68.4939 133.202L66.8699 134.14C66.4779 133.3 65.8526 132.88 64.9939 132.88C64.5926 132.88 64.2752 132.973 64.0419 133.16C63.8179 133.337 63.7059 133.571 63.7059 133.86C63.7059 134.168 63.8319 134.42 64.0839 134.616C64.3452 134.803 64.8399 135.008 65.5679 135.232C65.8666 135.325 66.0906 135.4 66.2399 135.456C66.3986 135.503 66.6086 135.582 66.8699 135.694C67.1406 135.797 67.3459 135.895 67.4859 135.988C67.6352 136.081 67.8032 136.207 67.9899 136.366C68.1766 136.525 68.3166 136.688 68.4099 136.856C68.5126 137.024 68.5966 137.229 68.6619 137.472C68.7366 137.705 68.7739 137.962 68.7739 138.242C68.7739 139.147 68.4426 139.866 67.7799 140.398C67.1266 140.93 66.2726 141.196 65.2179 141.196ZM77.1606 131.2V133.048H74.5146V141H72.5826V133.048H69.9506V131.2H77.1606ZM84.6151 141L82.6411 137.598H81.1711V141H79.2391V131.2H83.1591C84.0644 131.2 84.8344 131.517 85.4691 132.152C86.1038 132.787 86.4211 133.552 86.4211 134.448C86.4211 135.055 86.2484 135.619 85.9031 136.142C85.5578 136.655 85.1004 137.043 84.5311 137.304L86.7011 141H84.6151ZM81.1711 133.006V135.904H83.1591C83.5231 135.904 83.8358 135.764 84.0971 135.484C84.3584 135.195 84.4891 134.849 84.4891 134.448C84.4891 134.047 84.3584 133.706 84.0971 133.426C83.8358 133.146 83.5231 133.006 83.1591 133.006H81.1711ZM88.8387 131.2H90.7707V141H88.8387V131.2ZM99.5068 135.918C100.365 136.413 100.795 137.159 100.795 138.158C100.795 138.989 100.501 139.67 99.9128 140.202C99.3248 140.734 98.6015 141 97.7428 141H93.5848V131.2H97.4488C98.2888 131.2 98.9935 131.461 99.5628 131.984C100.141 132.497 100.431 133.155 100.431 133.958C100.431 134.77 100.123 135.423 99.5068 135.918ZM97.4488 133.006H95.5168V135.162H97.4488C97.7475 135.162 97.9948 135.059 98.1908 134.854C98.3961 134.649 98.4988 134.392 98.4988 134.084C98.4988 133.776 98.4008 133.519 98.2048 133.314C98.0088 133.109 97.7568 133.006 97.4488 133.006ZM97.7428 139.194C98.0695 139.194 98.3401 139.087 98.5548 138.872C98.7695 138.648 98.8768 138.368 98.8768 138.032C98.8768 137.705 98.7695 137.435 98.5548 137.22C98.3401 136.996 98.0695 136.884 97.7428 136.884H95.5168V139.194H97.7428ZM106.647 141.196C105.555 141.196 104.659 140.888 103.959 140.272C103.259 139.656 102.909 138.83 102.909 137.794V131.2H104.827V137.64C104.827 138.153 104.972 138.559 105.261 138.858C105.56 139.157 106.022 139.306 106.647 139.306C107.272 139.306 107.73 139.157 108.019 138.858C108.318 138.559 108.467 138.153 108.467 137.64V131.2H110.399V137.794C110.399 138.83 110.049 139.656 109.349 140.272C108.649 140.888 107.748 141.196 106.647 141.196ZM119.621 131.2V133.048H116.975V141H115.043V133.048H112.411V131.2H119.621ZM121.7 131.2H123.632V141H121.7V131.2ZM134.692 139.726C133.703 140.706 132.499 141.196 131.08 141.196C129.661 141.196 128.457 140.706 127.468 139.726C126.488 138.737 125.998 137.528 125.998 136.1C125.998 134.672 126.488 133.468 127.468 132.488C128.457 131.499 129.661 131.004 131.08 131.004C132.499 131.004 133.703 131.499 134.692 132.488C135.681 133.468 136.176 134.672 136.176 136.1C136.176 137.528 135.681 138.737 134.692 139.726ZM128.826 138.41C129.433 139.007 130.184 139.306 131.08 139.306C131.976 139.306 132.727 139.007 133.334 138.41C133.941 137.803 134.244 137.033 134.244 136.1C134.244 135.167 133.941 134.397 133.334 133.79C132.727 133.183 131.976 132.88 131.08 132.88C130.184 132.88 129.433 133.183 128.826 133.79C128.219 134.397 127.916 135.167 127.916 136.1C127.916 137.033 128.219 137.803 128.826 138.41ZM144.204 131.2H146.136V141H144.666L140.466 135.008V141H138.534V131.2H140.004L144.204 137.178V131.2ZM159.936 131.2V133.048H157.29V141H155.358V133.048H152.726V131.2H159.936ZM169.77 131.2L166.41 137.178V141H164.492V137.178L161.146 131.2H163.33L165.458 135.288L167.586 131.2H169.77ZM175.364 131.2C176.306 131.2 177.1 131.517 177.744 132.152C178.388 132.787 178.71 133.566 178.71 134.49C178.71 135.414 178.388 136.193 177.744 136.828C177.1 137.463 176.306 137.78 175.364 137.78H173.642V141H171.71V131.2H175.364ZM175.364 135.974C175.774 135.974 176.115 135.834 176.386 135.554C176.656 135.265 176.792 134.91 176.792 134.49C176.792 134.061 176.656 133.706 176.386 133.426C176.115 133.146 175.774 133.006 175.364 133.006H173.642V135.974H175.364ZM182.9 139.152H187.03V141H180.968V131.2H186.96V133.048H182.9V135.134H186.61V136.954H182.9V139.152Z" fill="white"/>
<rect x="22.1143" y="128.5" width="15" height="15" rx="7.5" stroke="#D3D6E6" stroke-dasharray="2 2"/>
<rect x="14.1143" y="115.5" width="181.771" height="41" rx="1.5" stroke="#223484" stroke-opacity="0.2"/>
<path d="M191.124 124.732C191.124 123.962 191.958 123.481 192.624 123.866L210.624 134.258C211.291 134.643 211.291 135.605 210.624 135.99L192.624 146.383C191.958 146.768 191.124 146.286 191.124 145.517L191.124 124.732Z" fill="#223484"/>
<rect x="11.1143" y="168" width="187.771" height="42" rx="2" fill="white"/>
<path d="M47.1417 194.196C46.1711 194.196 45.3544 193.981 44.6917 193.552C44.0291 193.113 43.5624 192.521 43.2917 191.774L44.9437 190.808C45.3264 191.807 46.0777 192.306 47.1977 192.306C47.7391 192.306 48.1357 192.208 48.3877 192.012C48.6397 191.816 48.7657 191.569 48.7657 191.27C48.7657 190.925 48.6117 190.659 48.3037 190.472C47.9957 190.276 47.4451 190.066 46.6517 189.842C46.2131 189.711 45.8397 189.581 45.5317 189.45C45.2331 189.319 44.9297 189.147 44.6217 188.932C44.3231 188.708 44.0944 188.428 43.9357 188.092C43.7771 187.756 43.6977 187.364 43.6977 186.916C43.6977 186.029 44.0104 185.325 44.6357 184.802C45.2704 184.27 46.0311 184.004 46.9177 184.004C47.7111 184.004 48.4064 184.2 49.0037 184.592C49.6104 184.975 50.0817 185.511 50.4177 186.202L48.7937 187.14C48.4017 186.3 47.7764 185.88 46.9177 185.88C46.5164 185.88 46.1991 185.973 45.9657 186.16C45.7417 186.337 45.6297 186.571 45.6297 186.86C45.6297 187.168 45.7557 187.42 46.0077 187.616C46.2691 187.803 46.7637 188.008 47.4917 188.232C47.7904 188.325 48.0144 188.4 48.1637 188.456C48.3224 188.503 48.5324 188.582 48.7937 188.694C49.0644 188.797 49.2697 188.895 49.4097 188.988C49.5591 189.081 49.7271 189.207 49.9137 189.366C50.1004 189.525 50.2404 189.688 50.3337 189.856C50.4364 190.024 50.5204 190.229 50.5857 190.472C50.6604 190.705 50.6977 190.962 50.6977 191.242C50.6977 192.147 50.3664 192.866 49.7037 193.398C49.0504 193.93 48.1964 194.196 47.1417 194.196ZM58.4615 184.2H60.3795V194H58.4615V189.94H54.8215V194H52.8895V184.2H54.8215V188.092H58.4615V184.2ZM63.2 184.2H65.132V194H63.2V184.2ZM73.7981 186.048H69.8781V188.372H73.6861V190.22H69.8781V194H67.9461V184.2H73.7981V186.048ZM82.6879 184.2V186.048H80.0419V194H78.1099V186.048H75.4779V184.2H82.6879ZM93.1584 184.2C94.5024 184.2 95.6224 184.671 96.5184 185.614C97.4238 186.557 97.8764 187.719 97.8764 189.1C97.8764 190.481 97.4238 191.643 96.5184 192.586C95.6224 193.529 94.5024 194 93.1584 194H89.2664V184.2H93.1584ZM93.1584 192.152C94.0078 192.152 94.6984 191.872 95.2304 191.312C95.7624 190.743 96.0284 190.005 96.0284 189.1C96.0284 188.195 95.7624 187.462 95.2304 186.902C94.6984 186.333 94.0078 186.048 93.1584 186.048H91.1984V192.152H93.1584ZM100.247 184.2H102.179V194H100.247V184.2ZM108.189 194.196C107.218 194.196 106.401 193.981 105.739 193.552C105.076 193.113 104.609 192.521 104.339 191.774L105.991 190.808C106.373 191.807 107.125 192.306 108.245 192.306C108.786 192.306 109.183 192.208 109.435 192.012C109.687 191.816 109.813 191.569 109.813 191.27C109.813 190.925 109.659 190.659 109.351 190.472C109.043 190.276 108.492 190.066 107.699 189.842C107.26 189.711 106.887 189.581 106.579 189.45C106.28 189.319 105.977 189.147 105.669 188.932C105.37 188.708 105.141 188.428 104.983 188.092C104.824 187.756 104.745 187.364 104.745 186.916C104.745 186.029 105.057 185.325 105.683 184.802C106.317 184.27 107.078 184.004 107.965 184.004C108.758 184.004 109.453 184.2 110.051 184.592C110.657 184.975 111.129 185.511 111.465 186.202L109.841 187.14C109.449 186.3 108.823 185.88 107.965 185.88C107.563 185.88 107.246 185.973 107.013 186.16C106.789 186.337 106.677 186.571 106.677 186.86C106.677 187.168 106.803 187.42 107.055 187.616C107.316 187.803 107.811 188.008 108.539 188.232C108.837 188.325 109.061 188.4 109.211 188.456C109.369 188.503 109.579 188.582 109.841 188.694C110.111 188.797 110.317 188.895 110.457 188.988C110.606 189.081 110.774 189.207 110.961 189.366C111.147 189.525 111.287 189.688 111.381 189.856C111.483 190.024 111.567 190.229 111.633 190.472C111.707 190.705 111.745 190.962 111.745 191.242C111.745 192.147 111.413 192.866 110.751 193.398C110.097 193.93 109.243 194.196 108.189 194.196ZM120.131 184.2V186.048H117.485V194H115.553V186.048H112.921V184.2H120.131ZM127.586 194L125.612 190.598H124.142V194H122.21V184.2H126.13C127.035 184.2 127.805 184.517 128.44 185.152C129.074 185.787 129.392 186.552 129.392 187.448C129.392 188.055 129.219 188.619 128.874 189.142C128.528 189.655 128.071 190.043 127.502 190.304L129.672 194H127.586ZM124.142 186.006V188.904H126.13C126.494 188.904 126.806 188.764 127.068 188.484C127.329 188.195 127.46 187.849 127.46 187.448C127.46 187.047 127.329 186.706 127.068 186.426C126.806 186.146 126.494 186.006 126.13 186.006H124.142ZM131.809 184.2H133.741V194H131.809V184.2ZM142.478 188.918C143.336 189.413 143.766 190.159 143.766 191.158C143.766 191.989 143.472 192.67 142.884 193.202C142.296 193.734 141.572 194 140.714 194H136.556V184.2H140.42C141.26 184.2 141.964 184.461 142.534 184.984C143.112 185.497 143.402 186.155 143.402 186.958C143.402 187.77 143.094 188.423 142.478 188.918ZM140.42 186.006H138.488V188.162H140.42C140.718 188.162 140.966 188.059 141.162 187.854C141.367 187.649 141.47 187.392 141.47 187.084C141.47 186.776 141.372 186.519 141.176 186.314C140.98 186.109 140.728 186.006 140.42 186.006ZM140.714 192.194C141.04 192.194 141.311 192.087 141.526 191.872C141.74 191.648 141.848 191.368 141.848 191.032C141.848 190.705 141.74 190.435 141.526 190.22C141.311 189.996 141.04 189.884 140.714 189.884H138.488V192.194H140.714ZM149.618 194.196C148.526 194.196 147.63 193.888 146.93 193.272C146.23 192.656 145.88 191.83 145.88 190.794V184.2H147.798V190.64C147.798 191.153 147.942 191.559 148.232 191.858C148.53 192.157 148.992 192.306 149.618 192.306C150.243 192.306 150.7 192.157 150.99 191.858C151.288 191.559 151.438 191.153 151.438 190.64V184.2H153.37V190.794C153.37 191.83 153.02 192.656 152.32 193.272C151.62 193.888 150.719 194.196 149.618 194.196ZM162.592 184.2V186.048H159.946V194H158.014V186.048H155.382V184.2H162.592ZM164.671 184.2H166.603V194H164.671V184.2ZM177.663 192.726C176.674 193.706 175.47 194.196 174.051 194.196C172.632 194.196 171.428 193.706 170.439 192.726C169.459 191.737 168.969 190.528 168.969 189.1C168.969 187.672 169.459 186.468 170.439 185.488C171.428 184.499 172.632 184.004 174.051 184.004C175.47 184.004 176.674 184.499 177.663 185.488C178.652 186.468 179.147 187.672 179.147 189.1C179.147 190.528 178.652 191.737 177.663 192.726ZM171.797 191.41C172.404 192.007 173.155 192.306 174.051 192.306C174.947 192.306 175.698 192.007 176.305 191.41C176.912 190.803 177.215 190.033 177.215 189.1C177.215 188.167 176.912 187.397 176.305 186.79C175.698 186.183 174.947 185.88 174.051 185.88C173.155 185.88 172.404 186.183 171.797 186.79C171.19 187.397 170.887 188.167 170.887 189.1C170.887 190.033 171.19 190.803 171.797 191.41ZM187.175 184.2H189.107V194H187.637L183.437 188.008V194H181.505V184.2H182.975L187.175 190.178V184.2Z" fill="#223484"/>
<rect x="19.6143" y="181.5" width="15" height="15" rx="7.5" stroke="#D3D6E6"/>
<rect x="11.6143" y="168.5" width="186.771" height="41" rx="1.5" stroke="#223484" stroke-opacity="0.2"/>
<defs>
<clipPath id="clip0_4_911">
<rect width="16" height="16" fill="white" transform="translate(23 22)"/>
</clipPath>
<clipPath id="clip1_4_911">
<rect x="23" y="75" width="16" height="16" rx="8" fill="white"/>
</clipPath>
</defs>
</svg>
