<svg width="80" height="40" viewBox="0 0 80 40" fill="none" xmlns="http://www.w3.org/2000/svg">
<rect width="80" height="40" rx="2" fill="#223484"/>
<path d="M31.286 25L29.312 21.598H27.842V25H25.91V15.2H29.83C30.7353 15.2 31.5053 15.5173 32.14 16.152C32.7747 16.7867 33.092 17.552 33.092 18.448C33.092 19.0547 32.9193 19.6193 32.574 20.142C32.2287 20.6553 31.7713 21.0427 31.202 21.304L33.372 25H31.286ZM27.842 17.006V19.904H29.83C30.194 19.904 30.5067 19.764 30.768 19.484C31.0293 19.1947 31.16 18.8493 31.16 18.448C31.16 18.0467 31.0293 17.706 30.768 17.426C30.5067 17.146 30.194 17.006 29.83 17.006H27.842ZM39.0953 25.196C38.0033 25.196 37.1073 24.888 36.4073 24.272C35.7073 23.656 35.3573 22.83 35.3573 21.794V15.2H37.2753V21.64C37.2753 22.1533 37.4199 22.5593 37.7093 22.858C38.0079 23.1567 38.4699 23.306 39.0953 23.306C39.7206 23.306 40.1779 23.1567 40.4673 22.858C40.7659 22.5593 40.9153 22.1533 40.9153 21.64V15.2H42.8473V21.794C42.8473 22.83 42.4973 23.656 41.7973 24.272C41.0973 24.888 40.1966 25.196 39.0953 25.196ZM51.2577 15.2H53.1897V25H51.7197L47.5197 19.008V25H45.5877V15.2H47.0577L51.2577 21.178V15.2Z" fill="white"/>
</svg>
