<svg width="20" height="20" viewBox="0 0 20 20" fill="none" xmlns="http://www.w3.org/2000/svg">
<rect width="20" height="20" rx="1" fill="#141A21"/>
<rect x="0.25" y="0.25" width="19.5" height="19.5" rx="0.75" stroke="#141A21" stroke-opacity="0.05" stroke-width="0.5"/>
<path d="M8.95831 13.8333C8.80484 13.8333 8.6761 13.7813 8.5721 13.6773C8.4681 13.5733 8.41628 13.4448 8.41664 13.2917V10.0417L5.27497 6.03332C5.13956 5.85277 5.11916 5.66318 5.21377 5.46457C5.30838 5.26596 5.47322 5.16666 5.70831 5.16666H13.2916C13.5264 5.16666 13.6912 5.26596 13.7862 5.46457C13.8812 5.66318 13.8608 5.85277 13.725 6.03332L10.5833 10.0417V13.2917C10.5833 13.4451 10.5313 13.5739 10.4273 13.6779C10.3233 13.7819 10.1948 13.8337 10.0416 13.8333H8.95831Z" fill="white"/>
</svg>
