<svg width="16" height="16" viewBox="0 0 16 16" fill="none" xmlns="http://www.w3.org/2000/svg">
<path fill-rule="evenodd" clip-rule="evenodd" d="M7.64599 11.354C7.69244 11.4006 7.74761 11.4375 7.80836 11.4627C7.8691 11.4879 7.93422 11.5009 7.99999 11.5009C8.06576 11.5009 8.13088 11.4879 8.19162 11.4627C8.25237 11.4375 8.30754 11.4006 8.35399 11.354L14.354 5.35399C14.4479 5.2601 14.5006 5.13277 14.5006 4.99999C14.5006 4.86722 14.4479 4.73988 14.354 4.64599C14.2601 4.5521 14.1328 4.49936 14 4.49936C13.8672 4.49936 13.7399 4.5521 13.646 4.64599L7.99999 10.293L2.35399 4.64599C2.2601 4.5521 2.13277 4.49936 1.99999 4.49936C1.86721 4.49936 1.73988 4.5521 1.64599 4.64599C1.5521 4.73988 1.49936 4.86722 1.49936 4.99999C1.49936 5.13277 1.5521 5.2601 1.64599 5.35399L7.64599 11.354Z" fill="#1F2937"/>
</svg>
