<svg width="20" height="20" viewBox="0 0 20 20" fill="none" xmlns="http://www.w3.org/2000/svg">
<rect width="20" height="20" rx="1" fill="#141A21"/>
<rect x="0.25" y="0.25" width="19.5" height="19.5" rx="0.75" stroke="#141A21" stroke-opacity="0.05" stroke-width="0.5"/>
<g clip-path="url(#clip0_1_463)">
<path d="M13.6765 4.85294H7.51837C7.46782 4.85294 7.42646 4.8943 7.42646 4.94485V5.58823C7.42646 5.63878 7.46782 5.68014 7.51837 5.68014H13.2169V13.5846C13.2169 13.6351 13.2583 13.6765 13.3088 13.6765H13.9522C14.0027 13.6765 14.0441 13.6351 14.0441 13.5846V5.22058C14.0441 5.01723 13.8798 4.85294 13.6765 4.85294ZM12.2059 6.32352H6.32352C6.12016 6.32352 5.95587 6.48782 5.95587 6.69117V12.7884C5.95587 12.886 5.99493 12.9791 6.06387 13.048L8.05491 15.0391C8.08018 15.0643 8.1089 15.085 8.13993 15.1022V15.1241H8.18818C8.22839 15.139 8.2709 15.1471 8.31456 15.1471H12.2059C12.4092 15.1471 12.5735 14.9828 12.5735 14.7794V6.69117C12.5735 6.48782 12.4092 6.32352 12.2059 6.32352ZM8.13878 13.9545L7.14958 12.9641H8.13878V13.9545ZM11.7463 14.3198H8.87407V12.6884C8.87407 12.4345 8.66842 12.2289 8.41451 12.2289H6.78308V7.15073H11.7463V14.3198Z" fill="white"/>
</g>
<defs>
<clipPath id="clip0_1_463">
<rect width="11.7647" height="11.7647" fill="white" transform="translate(4.11765 4.11765)"/>
</clipPath>
</defs>
</svg>
